<svg width="40" height="40" viewBox="0 0 40 40" fill="none" xmlns="http://www.w3.org/2000/svg">
<path d="M31.6665 18.3333C29.8256 18.3333 28.3332 16.8409 28.3332 14.9999V11.6666C28.3332 9.82564 29.8256 8.33325 31.6665 8.33325H34.9998C36.8408 8.33325 38.3332 9.82564 38.3332 11.6666V14.9999C38.3332 16.8409 36.8408 18.3333 34.9998 18.3333H31.6665ZM31.6665 31.6666C29.8256 31.6666 28.3332 30.1742 28.3332 28.3333V24.9999C28.3332 23.159 29.8256 21.6666 31.6665 21.6666H34.9998C36.8408 21.6666 38.3332 23.159 38.3332 24.9999V28.3333C38.3332 30.1742 36.8408 31.6666 34.9998 31.6666H31.6665Z" fill="#B8B4DE" fill-opacity="0.6"/>
<path fill-rule="evenodd" clip-rule="evenodd" d="M1.6665 26.6666C1.6665 29.428 3.90508 31.6666 6.6665 31.6666H19.9998C22.7613 31.6666 24.9998 29.428 24.9998 26.6666V13.3333C24.9998 10.5718 22.7613 8.33325 19.9998 8.33325H6.6665C3.90508 8.33325 1.6665 10.5718 1.6665 13.3333V26.6666ZM13.3332 23.4416L10.6762 25.4676C10.046 25.9481 9.1696 25.3397 9.39942 24.5813L10.4165 21.2249L7.82952 19.3817C7.18208 18.9204 7.50844 17.8999 8.30342 17.8999H11.4665L12.5526 14.37C12.7891 13.6014 13.8772 13.6014 14.1137 14.3701L15.1998 17.8999H18.3629C19.1579 17.8999 19.4843 18.9204 18.8368 19.3817L16.2498 21.2249L17.2669 24.5813C17.4967 25.3397 16.6203 25.9481 15.9902 25.4676L13.3332 23.4416Z" fill="#B8B4DE"/>
</svg>
