<svg width="16" height="16" viewBox="0 0 16 16" fill="none" xmlns="http://www.w3.org/2000/svg">
<path d="M14.4 2L1.6 2C1.17565 2 0.768687 2.15804 0.468629 2.43934C0.168571 2.72065 1.9271e-07 3.10218 2.62268e-07 3.5L1.83588e-06 12.5C1.90544e-06 12.8978 0.168573 13.2794 0.468631 13.5607C0.768689 13.842 1.17566 14 1.6 14L14.4 14C14.8243 14 15.2313 13.842 15.5314 13.5607C15.8314 13.2794 16 12.8978 16 12.5L16 3.5C16 3.10218 15.8314 2.72065 15.5314 2.43934C15.2313 2.15804 14.8243 2 14.4 2ZM14.4 5.525L8 9.5255L1.6 5.525L1.6 3.72275L8 7.7225L14.4 3.72275L14.4 5.525Z" fill="#999999"/>
</svg>
