<svg width="56" height="64" viewBox="0 0 56 64" fill="none" xmlns="http://www.w3.org/2000/svg">
<path d="M47.4014 36.8382C44.7298 47.5525 33.8768 54.0731 23.16 51.4012C12.4476 48.73 5.92632 37.8776 8.5991 27.164C11.2694 16.4485 22.1224 9.92727 32.8361 12.5985C43.5522 15.2697 50.0729 26.1234 47.4014 36.8382Z" fill="white" fill-opacity="0.4"/>
<path d="M36.819 29.1508C37.2172 26.4896 35.1907 25.059 32.4198 24.1046L33.3186 20.4997L31.124 19.9528L30.2489 23.4628C29.672 23.319 29.0794 23.1834 28.4906 23.049L29.372 19.5159L27.1786 18.9691L26.2791 22.5728C25.8016 22.464 25.3328 22.3565 24.8777 22.2434L24.8802 22.2321L21.8537 21.4765L21.2698 23.8203C21.2698 23.8203 22.8981 24.1934 22.8638 24.2165C23.7526 24.4384 23.9133 25.0265 23.8864 25.4927L22.8625 29.5996C22.9238 29.6152 23.0032 29.6377 23.0907 29.6727C23.0175 29.6546 22.9394 29.6346 22.8588 29.6152L21.4236 35.3683C21.3149 35.6383 21.0392 36.0433 20.4179 35.8895C20.4398 35.9214 18.8227 35.4914 18.8227 35.4914L17.7332 38.0032L20.5892 38.7151C21.1205 38.8482 21.6411 38.9876 22.1537 39.1189L21.2455 42.7651L23.4376 43.3119L24.3371 39.7045C24.9359 39.867 25.5172 40.017 26.086 40.1582L25.1896 43.7488L27.3842 44.2957L28.2925 40.6563C32.0347 41.3645 34.8488 41.0788 36.0333 37.6945C36.9878 34.9695 35.9858 33.3977 34.0168 32.3727C35.4507 32.042 36.5308 31.0989 36.819 29.1508ZM31.8047 36.1814C31.1265 38.9064 26.5379 37.4332 25.0503 37.0639L26.2554 32.2333C27.743 32.6045 32.5135 33.3395 31.8047 36.1814ZM32.4835 29.1115C31.8647 31.5902 28.0456 30.3308 26.8067 30.0221L27.8993 25.6409C29.1382 25.9496 33.128 26.5259 32.4835 29.1115Z" fill="white"/>
</svg>
