<svg width="56" height="64" viewBox="0 0 56 64" fill="none" xmlns="http://www.w3.org/2000/svg">
<path d="M47.4014 36.8388C44.7298 47.5543 33.8768 54.0757 23.16 51.4035C12.4476 48.732 5.92632 37.8783 8.5991 27.1634C11.2694 16.4467 22.1224 9.92471 32.8361 12.5962C43.5522 15.2678 50.0729 26.1227 47.4014 36.8388Z" fill="#F7931A"/>
<path d="M36.819 29.1505C37.2172 26.489 35.1907 25.0582 32.4198 24.1037L33.3186 20.4983L31.124 19.9514L30.2489 23.4618C29.672 23.318 29.0794 23.1824 28.4906 23.048L29.372 19.5145L27.1786 18.9675L26.2791 22.5717C25.8016 22.4629 25.3328 22.3554 24.8777 22.2423L24.8802 22.231L21.8537 21.4753L21.2698 23.8193C21.2698 23.8193 22.8981 24.1925 22.8638 24.2156C23.7526 24.4375 23.9133 25.0257 23.8864 25.492L22.8625 29.5993C22.9238 29.6149 23.0032 29.6374 23.0907 29.6724C23.0175 29.6543 22.9394 29.6343 22.8588 29.6149L21.4236 35.3687C21.3149 35.6387 21.0392 36.0437 20.4179 35.89C20.4398 35.9219 18.8227 35.4918 18.8227 35.4918L17.7332 38.004L20.5891 38.7159C21.1205 38.849 21.6411 38.9884 22.1537 39.1197L21.2455 42.7663L23.4376 43.3133L24.3371 39.7054C24.9359 39.8679 25.5172 40.0179 26.086 40.1592L25.1896 43.7502L27.3842 44.2971L28.2925 40.6574C32.0347 41.3656 34.8488 41.0799 36.0333 37.6952C36.9878 34.9699 35.9858 33.3978 34.0168 32.3727C35.4507 32.0421 36.5308 31.0988 36.819 29.1505ZM31.8047 36.1819C31.1265 38.9072 26.5379 37.4339 25.0503 37.0645L26.2554 32.2333C27.743 32.6046 32.5135 33.3397 31.8047 36.1819ZM32.4835 29.1111C31.8647 31.5901 28.0456 30.3306 26.8067 30.0219L27.8993 25.6401C29.1382 25.9489 33.128 26.5252 32.4835 29.1111Z" fill="white"/>
</svg>
