<svg width="56" height="64" viewBox="0 0 56 64" fill="none" xmlns="http://www.w3.org/2000/svg">
<path d="M35.7634 41.753H20.1364L21.4499 35.4827L18.896 37.2339L19.5164 33.8025L22.1875 31.9637L24.8077 19.457H29.6861L27.8822 28.0447L34.2337 23.6735L33.4893 27.2289L27.1389 31.5823L25.8826 37.5643H36.6314L35.7634 41.753Z" fill="white"/>
<path fill-rule="evenodd" clip-rule="evenodd" d="M27.9998 12C16.9542 12 8 20.9544 8 32.0002C8 43.0462 16.9542 52 27.9998 52C39.0458 52 48 43.0462 48 32.0002C48.0002 20.9544 39.046 12 27.9998 12ZM20.1364 41.753H35.7634L36.6314 37.5643H25.8826L27.1389 31.5823L33.4893 27.2289L34.2337 23.6735L27.8822 28.0447L29.6861 19.457H24.8077L22.1875 31.9637L19.5164 33.8025L18.896 37.2339L21.4499 35.4827L20.1364 41.753Z" fill="#5083FF"/>
</svg>
