<svg width="82" height="64" viewBox="0 0 82 64" fill="none" xmlns="http://www.w3.org/2000/svg">
<path d="M31.5339 16.2765H50.7857V47.7204H31.5339V16.2765Z" fill="white"/>
<path d="M33.5169 32.0012C33.5145 28.9735 34.2009 25.9848 35.524 23.2615C36.8472 20.5382 38.7725 18.1515 41.1543 16.2821C38.2044 13.9638 34.6617 12.5222 30.9313 12.122C27.2008 11.7218 23.433 12.3793 20.0585 14.0191C16.684 15.659 13.839 18.2152 11.8485 21.3956C9.85804 24.5759 8.80249 28.2521 8.80249 32.004C8.80249 35.7558 9.85804 39.432 11.8485 42.6123C13.839 45.7927 16.684 48.3489 20.0585 49.9888C23.433 51.6287 27.2008 52.2861 30.9313 51.8859C34.6617 51.4858 38.2044 50.0441 41.1543 47.7258C38.7718 45.8558 36.846 43.4683 35.5228 40.7439C34.1996 38.0196 33.5136 35.0299 33.5169 32.0012Z" fill="#ABABAB"/>
<path d="M73.5089 32.0012C73.5088 35.7534 72.453 39.4298 70.4622 42.6103C68.4714 45.7907 65.6259 48.3469 62.251 49.9865C58.8761 51.6262 55.1079 52.2832 51.3772 51.8824C47.6465 51.4816 44.1038 50.0393 41.1542 47.7203C43.535 45.8492 45.4597 43.4619 46.7832 40.7384C48.1068 38.0149 48.7944 35.0264 48.7944 31.9984C48.7944 28.9704 48.1068 25.9819 46.7832 23.2584C45.4597 20.5349 43.535 18.1476 41.1542 16.2765C44.1038 13.9575 47.6465 12.5151 51.3772 12.1144C55.1079 11.7136 58.8761 12.3706 62.251 14.0103C65.626 15.65 68.4715 18.2061 70.4623 21.3866C72.4531 24.5671 73.5089 28.2435 73.5089 31.9957V32.0012Z" fill="#ABABAB"/>
</svg>
