<svg width="81" height="64" viewBox="0 0 81 64" fill="none" xmlns="http://www.w3.org/2000/svg">
<path d="M30.7314 16.2765H49.9832V47.7204H30.7314V16.2765Z" fill="#FF5F00"/>
<path d="M32.7144 32.0012C32.712 28.9735 33.3984 25.9848 34.7215 23.2615C36.0447 20.5382 37.97 18.1515 40.3518 16.2821C37.4019 13.9638 33.8592 12.5222 30.1288 12.122C26.3983 11.7218 22.6305 12.3793 19.256 14.0191C15.8815 15.659 13.0365 18.2152 11.046 21.3956C9.05555 24.5759 8 28.2521 8 32.004C8 35.7558 9.05555 39.432 11.046 42.6123C13.0365 45.7927 15.8815 48.3489 19.256 49.9888C22.6305 51.6287 26.3983 52.2861 30.1288 51.8859C33.8592 51.4858 37.4019 50.0441 40.3518 47.7258C37.9693 45.8559 36.0435 43.4683 34.7203 40.7439C33.3971 38.0196 32.7112 35.0298 32.7144 32.0011V32.0012Z" fill="#EB001B"/>
<path d="M72.7064 32.0012C72.7064 35.7534 71.6506 39.4298 69.6597 42.6103C67.6689 45.7907 64.8234 48.3469 61.4485 49.9865C58.0736 51.6262 54.3054 52.2832 50.5747 51.8824C46.844 51.4817 43.3013 50.0393 40.3517 47.7203C42.7325 45.8492 44.6572 43.4619 45.9807 40.7384C47.3043 38.0149 47.992 35.0264 47.992 31.9984C47.992 28.9704 47.3043 25.9819 45.9807 23.2584C44.6572 20.5349 42.7325 18.1476 40.3517 16.2765C43.3014 13.9575 46.844 12.5151 50.5747 12.1144C54.3054 11.7136 58.0736 12.3706 61.4485 14.0103C64.8235 15.65 67.669 18.2061 69.6598 21.3866C71.6506 24.5671 72.7064 28.2435 72.7064 31.9957V32.0012Z" fill="#F79E1B"/>
</svg>
