<svg width="58" height="64" viewBox="0 0 58 64" fill="none" xmlns="http://www.w3.org/2000/svg">
<path fill-rule="evenodd" clip-rule="evenodd" d="M45.5431 46.6542C49.3379 46.6542 49.3774 42.6194 48.9898 40.6284C48.7788 39.2888 46.503 39.3099 46.2525 40.6284V42.1817C46.2518 42.5242 46.1154 42.8524 45.8733 43.0946C45.6311 43.3368 45.3028 43.4732 44.9603 43.4738H13.0834C12.741 43.4732 12.4127 43.3368 12.1705 43.0946C11.9283 42.8524 11.792 42.5242 11.7913 42.1817V40.6284C11.5408 39.3099 9.26497 39.2888 9.054 40.6284C8.66635 42.6194 8.70591 46.6542 12.5007 46.6542H45.5431ZM42.7979 8C44.599 8 46.0732 9.56114 46.0732 11.4677V13.1238C46.0732 15.4655 42.9087 15.455 42.9087 13.1396V12.2378C42.9087 11.958 42.7976 11.6897 42.5997 11.4919C42.4019 11.2941 42.1336 11.1829 41.8539 11.1829H16.1635C15.8838 11.1829 15.6155 11.2941 15.4177 11.4919C15.2198 11.6897 15.1087 11.958 15.1087 12.2378V13.1238C15.1087 15.4524 12.0866 15.4365 12.0866 13.1739V11.4704C12.0945 9.56378 13.566 8 15.3671 8H42.7979Z" fill="white" fill-opacity="0.6"/>
<path fill-rule="evenodd" clip-rule="evenodd" d="M45.4271 27.0423C46.3074 27.4354 47.0573 28.0714 47.5889 28.8758C48.1204 29.6801 48.4115 30.6193 48.4281 31.5833C48.4281 34.3733 45.9914 36.657 43.0142 36.657H34.6626C34.3003 36.6678 33.9483 36.5354 33.6828 36.2887C33.4173 36.042 33.2596 35.7006 33.2438 35.3385V19.4422C33.2452 19.0729 33.3927 18.7192 33.6541 18.4583C33.9155 18.1974 34.2695 18.0506 34.6388 18.0499H41.5928C42.6354 18.0474 43.6557 18.3521 44.5263 18.9259C45.3969 19.4996 46.0792 20.3171 46.4882 21.2762C46.8971 22.2353 47.0146 23.2936 46.8259 24.319C46.6372 25.3444 46.1507 26.2916 45.4271 27.0423ZM39.1957 25.7501H41.8459V25.7211C42.4407 25.6278 42.9828 25.3257 43.3752 24.8691C43.7675 24.4125 43.9845 23.8311 43.9872 23.2291C43.9852 22.5611 43.7189 21.9211 43.2466 21.4487C42.7742 20.9764 42.1342 20.7101 41.4662 20.708H36.1261V33.8934H42.8955C43.2445 33.9045 43.5921 33.8453 43.9177 33.7195C44.2434 33.5936 44.5404 33.4036 44.7912 33.1607C45.0419 32.9177 45.2413 32.6269 45.3775 32.3054C45.5136 31.984 45.5838 31.6384 45.5838 31.2893C45.5838 30.9401 45.5136 30.5946 45.3775 30.2731C45.2413 29.9516 45.0419 29.6608 44.7912 29.4179C44.5404 29.175 44.2434 28.9849 43.9177 28.8591C43.5921 28.7332 43.2445 28.6741 42.8955 28.6852H39.1957C39.0035 28.6852 38.8132 28.6473 38.6356 28.5738C38.458 28.5002 38.2967 28.3924 38.1608 28.2565C38.0249 28.1206 37.9171 27.9592 37.8435 27.7817C37.77 27.6041 37.7321 27.4138 37.7321 27.2216C37.7321 27.0294 37.77 26.8391 37.8435 26.6615C37.9171 26.4839 38.0249 26.3226 38.1608 26.1867C38.2967 26.0508 38.458 25.943 38.6356 25.8694C38.8132 25.7959 39.0035 25.758 39.1957 25.758" fill="white" fill-opacity="0.6"/>
<path d="M18.2178 51.5327C18.2178 51.4138 18.265 51.2998 18.3491 51.2157C18.4332 51.1317 18.5472 51.0844 18.6661 51.0844C18.785 51.0844 18.899 51.1317 18.9831 51.2157C19.0672 51.2998 19.1144 51.4138 19.1144 51.5327V53.9536C19.1137 54.4858 18.9022 54.9961 18.526 55.3728C18.1499 55.7494 17.6399 55.9616 17.1076 55.963C16.5753 55.9623 16.065 55.7507 15.6884 55.3746C15.3118 54.9985 15.0996 54.4885 15.0982 53.9562V51.5354C15.0934 51.4738 15.1015 51.4119 15.1218 51.3535C15.1421 51.2952 15.1743 51.2417 15.2162 51.1964C15.2582 51.1511 15.3091 51.1149 15.3657 51.0902C15.4223 51.0655 15.4834 51.0527 15.5451 51.0527C15.6069 51.0527 15.668 51.0655 15.7246 51.0902C15.7812 51.1149 15.8321 51.1511 15.8741 51.1964C15.916 51.2417 15.9482 51.2952 15.9685 51.3535C15.9888 51.4119 15.9969 51.4738 15.9921 51.5354V53.9562C15.9949 54.2516 16.1137 54.5342 16.3228 54.7428C16.532 54.9515 16.8148 55.0696 17.1102 55.0717C17.4061 55.0703 17.6894 54.952 17.8984 54.7425C18.1074 54.533 18.225 54.2494 18.2257 53.9536L18.2178 51.5327Z" fill="white" fill-opacity="0.6"/>
<path d="M22.4582 55.069C22.5771 55.069 22.6911 55.1163 22.7752 55.2003C22.8593 55.2844 22.9065 55.3984 22.9065 55.5173C22.9065 55.6362 22.8593 55.7503 22.7752 55.8343C22.6911 55.9184 22.5771 55.9656 22.4582 55.9656H21.2135C20.768 55.9656 20.3407 55.7887 20.0257 55.4736C19.7107 55.1586 19.5337 54.7313 19.5337 54.2858V51.5327C19.5337 51.4145 19.5807 51.3012 19.6642 51.2176C19.7478 51.134 19.8612 51.0871 19.9794 51.0871C20.0976 51.0871 20.2109 51.134 20.2945 51.2176C20.3781 51.3012 20.425 51.4145 20.425 51.5327V54.2806C20.425 54.4904 20.5084 54.6916 20.6568 54.84C20.8051 54.9883 21.0063 55.0717 21.2162 55.0717H22.4582V55.069Z" fill="white" fill-opacity="0.6"/>
<path d="M31.9174 35.0721C31.9497 35.2954 31.9366 35.5229 31.8789 35.7411C31.8212 35.9592 31.7201 36.1634 31.5816 36.3415C31.4431 36.5196 31.2702 36.668 31.073 36.7777C30.8759 36.8874 30.6586 36.9562 30.4343 36.98C30.2099 37.0038 29.9831 36.982 29.7673 36.9161C29.5516 36.8502 29.3513 36.7414 29.1786 36.5963C29.0059 36.4511 28.8642 36.2726 28.762 36.0715C28.6599 35.8703 28.5994 35.6506 28.5841 35.4255L27.2049 22.7913L22.3501 35.146V35.2963C22.2436 35.4826 22.1011 35.6457 21.9308 35.7762L21.9044 35.7973C21.8161 35.877 21.7188 35.9461 21.6144 36.003L21.5827 36.0189L21.5537 36.0347H21.3876C21.2299 36.091 21.0644 36.1221 20.8971 36.127H20.7758C20.5877 36.1216 20.402 36.0832 20.2273 36.0136H20.0901L20.0611 35.9978L20.0348 35.9819H20.0189C19.9253 35.932 19.837 35.8728 19.7552 35.8053L19.6998 35.7551L19.6577 35.7156L19.5574 35.6892L19.5073 35.6338C19.4398 35.5521 19.3806 35.4637 19.3307 35.3701V35.3543L19.3148 35.3279L19.299 35.2989V35.175L14.3545 22.7913L12.9806 35.4255C12.9337 35.8672 12.7133 36.2721 12.3679 36.5513C12.0225 36.8305 11.5803 36.961 11.1386 36.9141C10.6969 36.8673 10.292 36.6469 10.0128 36.3014C9.73363 35.956 9.60312 35.5138 9.64998 35.0721L11.2691 20.178C11.3082 19.8272 11.4138 19.4871 11.5803 19.1759C11.7881 18.7871 12.0853 18.4532 12.4476 18.202C12.8098 17.9507 13.2266 17.7892 13.6636 17.7308H13.7533C13.8946 17.7203 14.0365 17.7203 14.1778 17.7308C14.3484 17.7376 14.5179 17.7605 14.6841 17.7993C15.1216 17.8995 15.5279 18.1052 15.8675 18.3985C16.2072 18.6917 16.47 19.0637 16.6329 19.4818L20.7837 29.9721L24.9265 19.4475C25.1213 18.9487 25.4573 18.5174 25.8933 18.2064C26.3293 17.8954 26.8465 17.7182 27.3816 17.6965C27.523 17.686 27.6649 17.686 27.8062 17.6965H27.8959C28.3327 17.7553 28.7493 17.917 29.1115 18.1682C29.4737 18.4194 29.771 18.7531 29.9791 19.1416C30.06 19.2975 30.1279 19.4598 30.1822 19.6268C30.2355 19.7987 30.2717 19.9753 30.2903 20.1542L31.9174 35.0721Z" fill="white" fill-opacity="0.6"/>
<path d="M14.9241 55.4672C14.935 55.5274 14.9335 55.5892 14.9196 55.6488C14.9058 55.7084 14.8798 55.7645 14.8435 55.8137C14.8071 55.8629 14.761 55.9041 14.7081 55.9348C14.6552 55.9656 14.5966 55.9851 14.5358 55.9923C14.4751 55.9995 14.4135 55.9942 14.3549 55.9768C14.2962 55.9593 14.2418 55.93 14.1949 55.8907C14.1481 55.8514 14.1097 55.8029 14.0823 55.7482C14.0549 55.6935 14.0389 55.6338 14.0354 55.5727L13.653 52.3476L12.2844 55.5121C12.2374 55.6211 12.1491 55.707 12.0389 55.751C11.9287 55.795 11.8055 55.7935 11.6963 55.7468C11.5915 55.7016 11.5083 55.6174 11.4643 55.5121L10.0956 52.3476L9.71063 55.5727C9.70714 55.6338 9.69119 55.6935 9.66376 55.7482C9.63632 55.8029 9.59799 55.8514 9.55111 55.8907C9.50423 55.93 9.44981 55.9593 9.39118 55.9768C9.33255 55.9942 9.27097 55.9995 9.21022 55.9923C9.14947 55.9851 9.09084 55.9656 9.03793 55.9348C8.98503 55.9041 8.93897 55.8629 8.9026 55.8137C8.86623 55.7645 8.84031 55.7084 8.82643 55.6488C8.81256 55.5892 8.81103 55.5274 8.82194 55.4672L9.27288 51.7226C9.28735 51.6046 9.33081 51.4921 9.39937 51.395C9.46793 51.2979 9.55947 51.2193 9.6658 51.1662C9.69382 51.1509 9.72291 51.1377 9.75283 51.1266H9.78711C9.82977 51.1118 9.87402 51.1021 9.91896 51.0976C10.0313 51.082 10.1457 51.0917 10.2538 51.1259C10.3619 51.1601 10.461 51.218 10.5439 51.2954C10.5772 51.3266 10.6073 51.361 10.6336 51.3982C10.6531 51.4252 10.6707 51.4533 10.6863 51.4826C10.6962 51.4988 10.705 51.5155 10.7127 51.5327L11.873 54.2225L13.0333 51.5116C13.081 51.4039 13.1538 51.3092 13.2455 51.2353C13.3373 51.1615 13.4454 51.1106 13.5608 51.0871C13.6043 51.0781 13.6483 51.072 13.6926 51.0686H13.8297C13.9439 51.0815 14.0536 51.1202 14.1505 51.1819C14.2474 51.2436 14.3289 51.3266 14.3888 51.4246C14.4138 51.4653 14.4341 51.5086 14.4494 51.5538C14.4605 51.5819 14.4684 51.6111 14.4732 51.6409C14.4744 51.6602 14.4744 51.6795 14.4732 51.6989L14.9241 55.4672Z" fill="white" fill-opacity="0.6"/>
<path d="M24.4097 55.5173C24.4097 55.6362 24.3624 55.7503 24.2783 55.8343C24.1943 55.9184 24.0802 55.9656 23.9613 55.9656C23.8425 55.9656 23.7284 55.9184 23.6444 55.8343C23.5603 55.7503 23.513 55.6362 23.513 55.5173V51.981H22.2393C22.1204 51.981 22.0064 51.9338 21.9223 51.8497C21.8383 51.7657 21.791 51.6516 21.791 51.5327C21.791 51.4138 21.8383 51.2998 21.9223 51.2157C22.0064 51.1317 22.1204 51.0844 22.2393 51.0844H25.6834C25.8023 51.0844 25.9163 51.1317 26.0004 51.2157C26.0844 51.2998 26.1317 51.4138 26.1317 51.5327C26.1317 51.6516 26.0844 51.7657 26.0004 51.8497C25.9163 51.9338 25.8023 51.981 25.6834 51.981H24.4097V55.5173Z" fill="white" fill-opacity="0.6"/>
<path d="M27.2049 55.5173C27.2049 55.6362 27.1577 55.7503 27.0736 55.8343C26.9896 55.9184 26.8755 55.9656 26.7566 55.9656C26.6377 55.9656 26.5237 55.9184 26.4396 55.8343C26.3556 55.7503 26.3083 55.6362 26.3083 55.5173V51.5327C26.3083 51.4138 26.3556 51.2998 26.4396 51.2157C26.5237 51.1317 26.6377 51.0844 26.7566 51.0844C26.8755 51.0844 26.9896 51.1317 27.0736 51.2157C27.1577 51.2998 27.2049 51.4138 27.2049 51.5327V55.5173Z" fill="white" fill-opacity="0.6"/>
<path d="M36.3846 55.4672C36.3921 55.5816 36.3556 55.6945 36.2825 55.7828C36.2093 55.8711 36.1052 55.928 35.9914 55.9418C35.8776 55.9557 35.7628 55.9254 35.6707 55.8572C35.5785 55.7891 35.516 55.6882 35.4959 55.5754L35.3377 54.3096H33.7976C33.736 54.3143 33.6741 54.3063 33.6158 54.2859C33.5575 54.2656 33.504 54.2335 33.4587 54.1915C33.4133 54.1495 33.3772 54.0987 33.3524 54.042C33.3277 53.9854 33.315 53.9243 33.315 53.8626C33.315 53.8008 33.3277 53.7397 33.3524 53.6831C33.3772 53.6265 33.4133 53.5756 33.4587 53.5337C33.504 53.4917 33.5575 53.4595 33.6158 53.4392C33.6741 53.4189 33.736 53.4109 33.7976 53.4156H35.2375L35.1953 53.086C35.1953 53.086 35.1953 53.0649 35.1953 53.0543C35.1836 52.9768 35.1669 52.9002 35.1452 52.8249C35.121 52.7442 35.0902 52.6657 35.0529 52.5902C34.9744 52.4139 34.8475 52.2635 34.6869 52.1566C34.5263 52.0497 34.3386 51.9906 34.1457 51.9863C34.0694 51.9869 33.9933 51.9957 33.9189 52.0127C33.8493 52.03 33.782 52.0557 33.7185 52.0891C33.5412 52.1917 33.3917 52.3363 33.2832 52.51C33.1747 52.6838 33.1105 52.8816 33.0962 53.086L32.8166 55.5754C32.8102 55.6335 32.7924 55.6899 32.7642 55.7412C32.736 55.7925 32.698 55.8377 32.6524 55.8743C32.6067 55.9109 32.5543 55.9382 32.4981 55.9545C32.4419 55.9709 32.383 55.976 32.3248 55.9696C32.2666 55.9632 32.2103 55.9454 32.159 55.9172C32.1077 55.889 32.0624 55.851 32.0258 55.8053C31.9892 55.7597 31.962 55.7072 31.9456 55.651C31.9293 55.5948 31.9242 55.536 31.9306 55.4778L32.2101 52.9884C32.2398 52.6361 32.3562 52.2966 32.549 52.0003C32.7418 51.704 33.005 51.46 33.315 51.2901C33.4409 51.2268 33.5736 51.1782 33.7106 51.1451C33.8533 51.1119 33.9992 51.0951 34.1457 51.095C34.5049 51.097 34.8561 51.2015 35.1579 51.3963C35.4597 51.5911 35.6995 51.8681 35.8493 52.1946C35.9104 52.3169 35.9615 52.4439 36.0022 52.5744C36.0366 52.6945 36.0621 52.817 36.0787 52.9409C36.0812 52.954 36.0812 52.9674 36.0787 52.9805L36.3846 55.4672Z" fill="white" fill-opacity="0.6"/>
<path d="M37.7532 55.5173C37.758 55.5789 37.7499 55.6408 37.7296 55.6992C37.7093 55.7575 37.6771 55.811 37.6352 55.8563C37.5932 55.9016 37.5423 55.9378 37.4857 55.9625C37.4291 55.9872 37.368 56 37.3062 56C37.2445 56 37.1834 55.9872 37.1268 55.9625C37.0702 55.9378 37.0193 55.9016 36.9773 55.8563C36.9353 55.811 36.9032 55.7575 36.8829 55.6992C36.8626 55.6408 36.8545 55.5789 36.8593 55.5173V51.8254C36.8565 51.8 36.8565 51.7744 36.8593 51.749C36.865 51.6995 36.8765 51.6508 36.8935 51.6039L36.9305 51.5248C37.0076 51.3876 37.1324 51.2835 37.2812 51.2321L37.3418 51.2163H37.508C37.5995 51.2201 37.6891 51.2438 37.7706 51.2857C37.8521 51.3276 37.9236 51.3867 37.98 51.4589L40.3534 54.4994V51.5327C40.3534 51.4138 40.4006 51.2998 40.4847 51.2157C40.5687 51.1317 40.6828 51.0844 40.8017 51.0844C40.9206 51.0844 41.0346 51.1317 41.1187 51.2157C41.2027 51.2998 41.25 51.4138 41.25 51.5327V55.2246C41.2495 55.3183 41.2283 55.4106 41.1877 55.495C41.1471 55.5794 41.0882 55.6537 41.0153 55.7125C40.9867 55.7366 40.9557 55.7578 40.923 55.7758C40.9053 55.7861 40.8868 55.795 40.8676 55.8021L40.8307 55.818C40.6735 55.8729 40.5009 55.8634 40.3507 55.7916L40.2927 55.7626C40.2614 55.7429 40.2322 55.7199 40.2057 55.694C40.185 55.676 40.1657 55.6567 40.1477 55.636L40.1319 55.6175L37.7532 52.5665V55.5173Z" fill="white" fill-opacity="0.6"/>
<path d="M44.7467 55.069C44.8656 55.069 44.9796 55.1163 45.0637 55.2003C45.1478 55.2844 45.195 55.3984 45.195 55.5173C45.195 55.6362 45.1478 55.7503 45.0637 55.8343C44.9796 55.9184 44.8656 55.9656 44.7467 55.9656H43.4282C42.9603 55.9656 42.5116 55.7798 42.1807 55.4489C41.8499 55.1181 41.664 54.6693 41.664 54.2014V52.8539C41.6654 52.3864 41.8517 51.9385 42.1823 51.608C42.5128 51.2774 42.9607 51.0911 43.4282 51.0897H44.7467C44.8656 51.0897 44.9796 51.1369 45.0637 51.221C45.1478 51.3051 45.195 51.4191 45.195 51.538C45.195 51.6569 45.1478 51.7709 45.0637 51.855C44.9796 51.9391 44.8656 51.9863 44.7467 51.9863H43.4282C43.1957 51.989 42.9738 52.0839 42.8111 52.25C42.7286 52.3298 42.6628 52.4252 42.6175 52.5307C42.5722 52.6362 42.5484 52.7497 42.5474 52.8644V54.212C42.5488 54.4431 42.6412 54.6643 42.8046 54.8277C42.968 54.9911 43.1892 55.0835 43.4203 55.0849H44.7388L44.7467 55.069Z" fill="white" fill-opacity="0.6"/>
<path d="M47.339 51.9784C47.0238 51.9772 46.7203 52.0982 46.4925 52.3159C46.3844 52.4176 46.298 52.5401 46.2386 52.6761C46.1793 52.8121 46.1481 52.9587 46.147 53.1071V53.943C46.1476 54.0912 46.1783 54.2378 46.2372 54.3738C46.2962 54.5098 46.3821 54.6324 46.4898 54.7341C46.7177 54.9519 47.0211 55.0729 47.3363 55.0717C47.6515 55.0729 47.9549 54.9519 48.1828 54.7341C48.2909 54.6325 48.3773 54.51 48.4366 54.374C48.496 54.238 48.5272 54.0914 48.5283 53.943V53.1071C48.5271 52.959 48.4961 52.8126 48.4372 52.6767C48.3783 52.5408 48.2927 52.4181 48.1855 52.3159C47.9562 52.0987 47.6522 51.9779 47.3363 51.9784M47.3363 51.0844C47.8824 51.0825 48.408 51.2923 48.8025 51.6699C48.9975 51.8546 49.1529 52.077 49.2594 52.3236C49.366 52.5702 49.4213 52.8358 49.4222 53.1044V53.9404C49.4213 54.209 49.366 54.4746 49.2594 54.7212C49.1529 54.9678 48.9975 55.1902 48.8025 55.3749C48.408 55.7525 47.8824 55.9623 47.3363 55.9604C46.7902 55.9623 46.2647 55.7525 45.8701 55.3749C45.676 55.1897 45.5213 54.9671 45.4153 54.7206C45.3092 54.4741 45.2541 54.2087 45.253 53.9404V53.1044C45.2541 52.8361 45.3092 52.5707 45.4153 52.3242C45.5213 52.0777 45.676 51.8551 45.8701 51.6699C46.2647 51.2923 46.7902 51.0825 47.3363 51.0844Z" fill="white" fill-opacity="0.6"/>
<path d="M28.4734 51.981V55.069H30.2033C30.2773 55.069 30.3505 55.0544 30.4189 55.026C30.4872 54.9976 30.5492 54.956 30.6014 54.9036C30.6536 54.8512 30.6949 54.7889 30.723 54.7205C30.7511 54.652 30.7653 54.5787 30.765 54.5047C30.7653 54.3641 30.7126 54.2285 30.6173 54.125L30.5989 54.1091C30.5476 54.0559 30.4862 54.0136 30.4182 53.9846C30.3503 53.9556 30.2772 53.9406 30.2033 53.9404H29.6073C29.4884 53.9404 29.3744 53.8931 29.2903 53.8091C29.2062 53.725 29.159 53.611 29.159 53.4921C29.159 53.3732 29.2062 53.2591 29.2903 53.1751C29.3744 53.091 29.4884 53.0438 29.6073 53.0438H29.8104C29.9375 53.0326 30.0568 52.9776 30.1479 52.8882C30.1981 52.839 30.2379 52.7803 30.2651 52.7156C30.2922 52.6508 30.3062 52.5813 30.3061 52.5111C30.3061 52.3712 30.2506 52.2371 30.1517 52.1381C30.0528 52.0392 29.9186 51.9837 29.7787 51.9837H28.4734V51.981ZM27.5768 51.5512C27.5765 51.4904 27.5891 51.4301 27.6137 51.3745C27.6385 51.3169 27.6733 51.2643 27.7165 51.2189C27.7965 51.1425 27.9014 51.0976 28.0119 51.0923H29.7655C30.1439 51.0923 30.5068 51.2426 30.7743 51.5102C31.0419 51.7777 31.1922 52.1406 31.1922 52.519C31.1914 52.7876 31.1156 53.0506 30.9733 53.2785C31.0687 53.3349 31.1572 53.4021 31.237 53.4789L31.266 53.5105C31.522 53.7803 31.6645 54.1381 31.6642 54.51C31.6635 54.8958 31.5099 55.2657 31.2371 55.5385C30.9643 55.8114 30.5944 55.9649 30.2086 55.9656H28.0251C27.9062 55.9656 27.7921 55.9184 27.7081 55.8343C27.624 55.7503 27.5768 55.6362 27.5768 55.5173V51.5512Z" fill="white" fill-opacity="0.6"/>
</svg>
