<svg width="58" height="64" viewBox="0 0 58 64" fill="none" xmlns="http://www.w3.org/2000/svg">
<path fill-rule="evenodd" clip-rule="evenodd" d="M45.1506 46.6542C48.9453 46.6542 48.9849 42.6194 48.5973 40.6284C48.3863 39.2888 46.1105 39.3099 45.86 40.6284V42.1817C45.8593 42.5242 45.7229 42.8524 45.4807 43.0946C45.2386 43.3368 44.9103 43.4732 44.5678 43.4738H12.6909C12.3484 43.4732 12.0202 43.3368 11.778 43.0946C11.5358 42.8524 11.3995 42.5242 11.3988 42.1817V40.6284C11.1482 39.3099 8.87245 39.2888 8.66149 40.6284C8.27384 42.6194 8.31339 46.6542 12.1081 46.6542H45.1506ZM42.4054 8C44.2065 8 45.6807 9.56114 45.6807 11.4677V13.1238C45.6807 15.4655 42.5162 15.455 42.5162 13.1396V12.2378C42.5162 11.958 42.405 11.6897 42.2072 11.4919C42.0094 11.2941 41.7411 11.1829 41.4613 11.1829H15.771C15.4913 11.1829 15.223 11.2941 15.0251 11.4919C14.8273 11.6897 14.7162 11.958 14.7162 12.2378V13.1238C14.7162 15.4524 11.6941 15.4365 11.6941 13.1739V11.4704C11.702 9.56378 13.1735 8 14.9746 8H42.4054Z" fill="#318BFF"/>
<path fill-rule="evenodd" clip-rule="evenodd" d="M45.0346 27.0423C45.9149 27.4354 46.6648 28.0714 47.1964 28.8758C47.7279 29.6801 48.019 30.6193 48.0356 31.5833C48.0356 34.3733 45.5989 36.657 42.6217 36.657H34.2701C33.9078 36.6678 33.5558 36.5354 33.2903 36.2887C33.0248 36.042 32.8671 35.7006 32.8513 35.3385V19.4422C32.8527 19.0729 33.0002 18.7192 33.2616 18.4583C33.523 18.1974 33.877 18.0506 34.2463 18.0499H41.2003C42.2429 18.0474 43.2632 18.3521 44.1338 18.9259C45.0044 19.4996 45.6867 20.3171 46.0956 21.2762C46.5046 22.2353 46.6221 23.2936 46.4334 24.319C46.2447 25.3444 45.7582 26.2916 45.0346 27.0423ZM38.8032 25.7501H41.4534V25.7211C42.0482 25.6278 42.5903 25.3257 42.9826 24.8691C43.375 24.4125 43.592 23.8311 43.5947 23.2291C43.5926 22.5611 43.3264 21.9211 42.854 21.4487C42.3817 20.9764 41.7417 20.7101 41.0737 20.708H35.7336V33.8934H42.503C42.8519 33.9045 43.1996 33.8453 43.5252 33.7195C43.8508 33.5936 44.1479 33.4036 44.3986 33.1607C44.6494 32.9177 44.8488 32.6269 44.985 32.3054C45.1211 31.984 45.1913 31.6384 45.1913 31.2893C45.1913 30.9401 45.1211 30.5946 44.985 30.2731C44.8488 29.9516 44.6494 29.6608 44.3986 29.4179C44.1479 29.175 43.8508 28.9849 43.5252 28.8591C43.1996 28.7332 42.8519 28.6741 42.503 28.6852H38.8032C38.611 28.6852 38.4207 28.6473 38.2431 28.5738C38.0655 28.5002 37.9042 28.3924 37.7683 28.2565C37.6324 28.1206 37.5246 27.9592 37.451 27.7817C37.3775 27.6041 37.3396 27.4138 37.3396 27.2216C37.3396 27.0294 37.3775 26.8391 37.451 26.6615C37.5246 26.4839 37.6324 26.3226 37.7683 26.1867C37.9042 26.0508 38.0655 25.943 38.2431 25.8694C38.4207 25.7959 38.611 25.758 38.8032 25.758" fill="white"/>
<path d="M17.8253 51.5327C17.8253 51.4138 17.8725 51.2998 17.9566 51.2157C18.0407 51.1317 18.1547 51.0844 18.2736 51.0844C18.3925 51.0844 18.5065 51.1317 18.5906 51.2157C18.6747 51.2998 18.7219 51.4138 18.7219 51.5327V53.9536C18.7212 54.4858 18.5096 54.9961 18.1335 55.3728C17.7574 55.7494 17.2474 55.9616 16.7151 55.963C16.1828 55.9623 15.6725 55.7507 15.2959 55.3746C14.9193 54.9985 14.707 54.4885 14.7056 53.9562V51.5354C14.7009 51.4738 14.709 51.4119 14.7293 51.3535C14.7496 51.2952 14.7817 51.2417 14.8237 51.1964C14.8657 51.1511 14.9166 51.1149 14.9732 51.0902C15.0298 51.0655 15.0909 51.0527 15.1526 51.0527C15.2144 51.0527 15.2755 51.0655 15.3321 51.0902C15.3887 51.1149 15.4396 51.1511 15.4815 51.1964C15.5235 51.2417 15.5557 51.2952 15.576 51.3535C15.5963 51.4119 15.6043 51.4738 15.5996 51.5354V53.9562C15.6024 54.2516 15.7211 54.5342 15.9303 54.7428C16.1395 54.9515 16.4223 55.0696 16.7177 55.0717C17.0136 55.0703 17.2969 54.952 17.5059 54.7425C17.7149 54.533 17.8325 54.2494 17.8332 53.9536L17.8253 51.5327Z" fill="white"/>
<path d="M22.0657 55.069C22.1846 55.069 22.2986 55.1163 22.3827 55.2003C22.4668 55.2844 22.514 55.3984 22.514 55.5173C22.514 55.6362 22.4668 55.7503 22.3827 55.8343C22.2986 55.9184 22.1846 55.9656 22.0657 55.9656H20.821C20.3755 55.9656 19.9482 55.7887 19.6332 55.4736C19.3182 55.1586 19.1412 54.7313 19.1412 54.2858V51.5327C19.1412 51.4145 19.1881 51.3012 19.2717 51.2176C19.3553 51.134 19.4687 51.0871 19.5869 51.0871C19.7051 51.0871 19.8184 51.134 19.902 51.2176C19.9856 51.3012 20.0325 51.4145 20.0325 51.5327V54.2806C20.0325 54.4904 20.1159 54.6916 20.2642 54.84C20.4126 54.9883 20.6138 55.0717 20.8236 55.0717H22.0657V55.069Z" fill="white"/>
<path d="M31.5249 35.0721C31.5572 35.2954 31.5441 35.5229 31.4864 35.7411C31.4287 35.9592 31.3276 36.1634 31.1891 36.3415C31.0506 36.5196 30.8776 36.668 30.6805 36.7777C30.4834 36.8874 30.2661 36.9562 30.0418 36.98C29.8174 37.0038 29.5906 36.982 29.3748 36.9161C29.159 36.8502 28.9588 36.7414 28.7861 36.5963C28.6133 36.4511 28.4717 36.2726 28.3695 36.0715C28.2674 35.8703 28.2069 35.6506 28.1916 35.4255L26.8124 22.7913L21.9576 35.146V35.2963C21.8511 35.4826 21.7086 35.6457 21.5383 35.7762L21.5119 35.7973C21.4236 35.877 21.3263 35.9461 21.2218 36.003L21.1902 36.0189L21.1612 36.0347H20.9951C20.8374 36.091 20.6719 36.1221 20.5046 36.127H20.3833C20.1952 36.1216 20.0095 36.0832 19.8347 36.0136H19.6976L19.6686 35.9978L19.6422 35.9819H19.6264C19.5328 35.932 19.4445 35.8728 19.3627 35.8053L19.3073 35.7551L19.2651 35.7156L19.1649 35.6892L19.1148 35.6338C19.0472 35.5521 18.988 35.4637 18.9381 35.3701V35.3543L18.9223 35.3279L18.9065 35.2989V35.175L13.962 22.7913L12.5881 35.4255C12.5412 35.8672 12.3208 36.2721 11.9754 36.5513C11.6299 36.8305 11.1878 36.961 10.7461 36.9141C10.3044 36.8673 9.89946 36.6469 9.62029 36.3014C9.34111 35.956 9.2106 35.5138 9.25746 35.0721L10.8766 20.178C10.9157 19.8272 11.0213 19.4871 11.1878 19.1759C11.3956 18.7871 11.6928 18.4532 12.0551 18.202C12.4173 17.9507 12.8341 17.7892 13.2711 17.7308H13.3607C13.5021 17.7203 13.644 17.7203 13.7853 17.7308C13.9559 17.7376 14.1254 17.7605 14.2916 17.7993C14.7291 17.8995 15.1353 18.1052 15.475 18.3985C15.8147 18.6917 16.0775 19.0637 16.2404 19.4818L20.3912 29.9721L24.534 19.4475C24.7288 18.9487 25.0648 18.5174 25.5008 18.2064C25.9368 17.8954 26.454 17.7182 26.9891 17.6965C27.1304 17.686 27.2724 17.686 27.4137 17.6965H27.5033C27.9402 17.7553 28.3568 17.917 28.719 18.1682C29.0812 18.4194 29.3785 18.7531 29.5866 19.1416C29.6675 19.2975 29.7354 19.4598 29.7897 19.6268C29.843 19.7987 29.8792 19.9753 29.8978 20.1542L31.5249 35.0721Z" fill="white"/>
<path d="M14.5316 55.4672C14.5425 55.5274 14.541 55.5892 14.5271 55.6488C14.5132 55.7084 14.4873 55.7645 14.4509 55.8137C14.4146 55.8629 14.3685 55.9041 14.3156 55.9348C14.2627 55.9656 14.2041 55.9851 14.1433 55.9923C14.0826 55.9995 14.021 55.9942 13.9624 55.9768C13.9037 55.9593 13.8493 55.93 13.8024 55.8907C13.7556 55.8514 13.7172 55.8029 13.6898 55.7482C13.6623 55.6935 13.6464 55.6338 13.6429 55.5727L13.2605 52.3476L11.8919 55.5121C11.8449 55.6211 11.7566 55.707 11.6464 55.751C11.5361 55.795 11.413 55.7935 11.3038 55.7468C11.199 55.7016 11.1158 55.6174 11.0718 55.5121L9.70313 52.3476L9.31812 55.5727C9.31463 55.6338 9.29868 55.6935 9.27124 55.7482C9.24381 55.8029 9.20547 55.8514 9.15859 55.8907C9.11172 55.93 9.05729 55.9593 8.99866 55.9768C8.94004 55.9942 8.87845 55.9995 8.8177 55.9923C8.75695 55.9851 8.69832 55.9656 8.64542 55.9348C8.59251 55.9041 8.54646 55.8629 8.51008 55.8137C8.47371 55.7645 8.44779 55.7084 8.43392 55.6488C8.42005 55.5892 8.41852 55.5274 8.42942 55.4672L8.88036 51.7226C8.89483 51.6046 8.93829 51.4921 9.00685 51.395C9.07541 51.2979 9.16695 51.2193 9.27329 51.1662C9.30131 51.1509 9.33039 51.1377 9.36031 51.1266H9.39459C9.43725 51.1118 9.48151 51.1021 9.52644 51.0976C9.63877 51.082 9.75317 51.0917 9.86129 51.1259C9.96941 51.1601 10.0685 51.218 10.1514 51.2954C10.1847 51.3266 10.2147 51.361 10.2411 51.3982C10.2605 51.4252 10.2782 51.4533 10.2938 51.4826C10.3036 51.4988 10.3125 51.5155 10.3202 51.5327L11.4805 54.2225L12.6408 51.5116C12.6885 51.4039 12.7612 51.3092 12.853 51.2353C12.9447 51.1615 13.0528 51.1106 13.1682 51.0871C13.2118 51.0781 13.2558 51.072 13.3001 51.0686H13.4372C13.5514 51.0815 13.6611 51.1202 13.7579 51.1819C13.8548 51.2436 13.9363 51.3266 13.9963 51.4246C14.0213 51.4653 14.0416 51.5086 14.0569 51.5538C14.0679 51.5819 14.0759 51.6111 14.0807 51.6409C14.0819 51.6602 14.0819 51.6795 14.0807 51.6989L14.5316 55.4672Z" fill="white"/>
<path d="M24.0171 55.5173C24.0171 55.6362 23.9699 55.7503 23.8858 55.8343C23.8018 55.9184 23.6877 55.9656 23.5688 55.9656C23.4499 55.9656 23.3359 55.9184 23.2518 55.8343C23.1678 55.7503 23.1205 55.6362 23.1205 55.5173V51.981H21.8468C21.7279 51.981 21.6139 51.9338 21.5298 51.8497C21.4458 51.7657 21.3985 51.6516 21.3985 51.5327C21.3985 51.4138 21.4458 51.2998 21.5298 51.2157C21.6139 51.1317 21.7279 51.0844 21.8468 51.0844H25.2908C25.4097 51.0844 25.5238 51.1317 25.6078 51.2157C25.6919 51.2998 25.7391 51.4138 25.7391 51.5327C25.7391 51.6516 25.6919 51.7657 25.6078 51.8497C25.5238 51.9338 25.4097 51.981 25.2908 51.981H24.0171V55.5173Z" fill="white"/>
<path d="M26.8124 55.5173C26.8124 55.6362 26.7652 55.7503 26.6811 55.8343C26.597 55.9184 26.483 55.9656 26.3641 55.9656C26.2452 55.9656 26.1312 55.9184 26.0471 55.8343C25.9631 55.7503 25.9158 55.6362 25.9158 55.5173V51.5327C25.9158 51.4138 25.9631 51.2998 26.0471 51.2157C26.1312 51.1317 26.2452 51.0844 26.3641 51.0844C26.483 51.0844 26.597 51.1317 26.6811 51.2157C26.7652 51.2998 26.8124 51.4138 26.8124 51.5327V55.5173Z" fill="white"/>
<path d="M35.9921 55.4672C35.9996 55.5816 35.9631 55.6945 35.89 55.7828C35.8168 55.8711 35.7127 55.928 35.5989 55.9418C35.4851 55.9557 35.3703 55.9254 35.2782 55.8572C35.186 55.7891 35.1235 55.6882 35.1034 55.5754L34.9451 54.3096H33.4051C33.3435 54.3143 33.2816 54.3063 33.2233 54.2859C33.165 54.2656 33.1115 54.2335 33.0661 54.1915C33.0208 54.1495 32.9847 54.0987 32.9599 54.042C32.9352 53.9854 32.9224 53.9243 32.9224 53.8626C32.9224 53.8008 32.9352 53.7397 32.9599 53.6831C32.9847 53.6265 33.0208 53.5756 33.0661 53.5337C33.1115 53.4917 33.165 53.4595 33.2233 53.4392C33.2816 53.4189 33.3435 53.4109 33.4051 53.4156H34.8449L34.8027 53.086C34.8027 53.086 34.8027 53.0649 34.8027 53.0543C34.7911 52.9768 34.7744 52.9002 34.7526 52.8249C34.7285 52.7442 34.6976 52.6657 34.6603 52.5902C34.5819 52.4139 34.455 52.2635 34.2944 52.1566C34.1338 52.0497 33.9461 51.9906 33.7532 51.9863C33.6769 51.9869 33.6008 51.9957 33.5264 52.0127C33.4568 52.03 33.3895 52.0557 33.326 52.0891C33.1486 52.1917 32.9992 52.3363 32.8907 52.51C32.7822 52.6838 32.7179 52.8816 32.7036 53.086L32.4241 55.5754C32.4177 55.6335 32.3999 55.6899 32.3717 55.7412C32.3435 55.7925 32.3055 55.8377 32.2599 55.8743C32.2142 55.9109 32.1618 55.9382 32.1055 55.9545C32.0493 55.9709 31.9905 55.976 31.9323 55.9696C31.8741 55.9632 31.8178 55.9454 31.7665 55.9172C31.7152 55.889 31.6699 55.851 31.6333 55.8053C31.5967 55.7597 31.5695 55.7072 31.5531 55.651C31.5368 55.5948 31.5316 55.536 31.5381 55.4778L31.8176 52.9884C31.8472 52.6361 31.9637 52.2966 32.1565 52.0003C32.3493 51.704 32.6125 51.46 32.9225 51.2901C33.0484 51.2268 33.1811 51.1782 33.3181 51.1451C33.4607 51.1119 33.6067 51.0951 33.7532 51.095C34.1124 51.097 34.4636 51.2015 34.7654 51.3963C35.0672 51.5911 35.307 51.8681 35.4567 52.1946C35.5178 52.3169 35.569 52.4439 35.6097 52.5744C35.644 52.6945 35.6696 52.817 35.6862 52.9409C35.6887 52.954 35.6887 52.9674 35.6862 52.9805L35.9921 55.4672Z" fill="white"/>
<path d="M37.3607 55.5173C37.3654 55.5789 37.3574 55.6408 37.3371 55.6992C37.3168 55.7575 37.2846 55.811 37.2426 55.8563C37.2007 55.9016 37.1498 55.9378 37.0932 55.9625C37.0366 55.9872 36.9755 56 36.9137 56C36.8519 56 36.7908 55.9872 36.7342 55.9625C36.6776 55.9378 36.6268 55.9016 36.5848 55.8563C36.5428 55.811 36.5107 55.7575 36.4904 55.6992C36.47 55.6408 36.462 55.5789 36.4667 55.5173V51.8254C36.464 51.8 36.464 51.7744 36.4667 51.749C36.4725 51.6995 36.484 51.6508 36.501 51.6039L36.5379 51.5248C36.6151 51.3876 36.7399 51.2835 36.8887 51.2321L36.9493 51.2163H37.1155C37.207 51.2201 37.2966 51.2438 37.3781 51.2857C37.4596 51.3276 37.5311 51.3867 37.5875 51.4589L39.9608 54.4994V51.5327C39.9608 51.4138 40.0081 51.2998 40.0922 51.2157C40.1762 51.1317 40.2903 51.0844 40.4092 51.0844C40.528 51.0844 40.6421 51.1317 40.7262 51.2157C40.8102 51.2998 40.8575 51.4138 40.8575 51.5327V55.2246C40.857 55.3183 40.8358 55.4106 40.7952 55.495C40.7546 55.5794 40.6957 55.6537 40.6228 55.7125C40.5941 55.7366 40.5632 55.7578 40.5305 55.7758C40.5128 55.7861 40.4943 55.795 40.4751 55.8021L40.4382 55.818C40.281 55.8729 40.1084 55.8634 39.9582 55.7916L39.9002 55.7626C39.8689 55.7429 39.8397 55.7199 39.8132 55.694C39.7925 55.676 39.7731 55.6567 39.7552 55.636L39.7393 55.6175L37.3607 52.5665V55.5173Z" fill="white"/>
<path d="M44.3542 55.069C44.4731 55.069 44.5871 55.1163 44.6712 55.2003C44.7553 55.2844 44.8025 55.3984 44.8025 55.5173C44.8025 55.6362 44.7553 55.7503 44.6712 55.8343C44.5871 55.9184 44.4731 55.9656 44.3542 55.9656H43.0357C42.5678 55.9656 42.119 55.7798 41.7882 55.4489C41.4573 55.1181 41.2715 54.6693 41.2715 54.2014V52.8539C41.2729 52.3864 41.4592 51.9385 41.7897 51.608C42.1203 51.2774 42.5682 51.0911 43.0357 51.0897H44.3542C44.4731 51.0897 44.5871 51.1369 44.6712 51.221C44.7553 51.3051 44.8025 51.4191 44.8025 51.538C44.8025 51.6569 44.7553 51.7709 44.6712 51.855C44.5871 51.9391 44.4731 51.9863 44.3542 51.9863H43.0357C42.8032 51.989 42.5813 52.0839 42.4186 52.25C42.3361 52.3298 42.2702 52.4252 42.225 52.5307C42.1797 52.6362 42.1559 52.7497 42.1549 52.8644V54.212C42.1563 54.4431 42.2487 54.6643 42.4121 54.8277C42.5755 54.9911 42.7967 55.0835 43.0278 55.0849H44.3463L44.3542 55.069Z" fill="white"/>
<path d="M46.9464 51.9784C46.6312 51.9772 46.3278 52.0982 46.0999 52.3159C45.9919 52.4176 45.9055 52.5401 45.8461 52.6761C45.7868 52.8121 45.7556 52.9587 45.7545 53.1071V53.943C45.7551 54.0912 45.7858 54.2378 45.8447 54.3738C45.9036 54.5098 45.9896 54.6324 46.0973 54.7341C46.3252 54.9519 46.6286 55.0729 46.9438 55.0717C47.259 55.0729 47.5624 54.9519 47.7903 54.7341C47.8984 54.6325 47.9847 54.51 48.0441 54.374C48.1035 54.238 48.1347 54.0914 48.1358 53.943V53.1071C48.1346 52.959 48.1036 52.8126 48.0447 52.6767C47.9858 52.5408 47.9002 52.4181 47.7929 52.3159C47.5637 52.0987 47.2597 51.9779 46.9438 51.9784M46.9438 51.0844C47.4899 51.0825 48.0155 51.2923 48.41 51.6699C48.605 51.8546 48.7604 52.077 48.8669 52.3236C48.9734 52.5702 49.0288 52.8358 49.0297 53.1044V53.9404C49.0288 54.209 48.9734 54.4746 48.8669 54.7212C48.7604 54.9678 48.605 55.1902 48.41 55.3749C48.0155 55.7525 47.4899 55.9623 46.9438 55.9604C46.3977 55.9623 45.8721 55.7525 45.4776 55.3749C45.2835 55.1897 45.1288 54.9671 45.0228 54.7206C44.9167 54.4741 44.8615 54.2087 44.8605 53.9404V53.1044C44.8615 52.8361 44.9167 52.5707 45.0228 52.3242C45.1288 52.0777 45.2835 51.8551 45.4776 51.6699C45.8721 51.2923 46.3977 51.0825 46.9438 51.0844Z" fill="white"/>
<path d="M28.0809 51.981V55.069H29.8108C29.8848 55.069 29.958 55.0544 30.0263 55.026C30.0947 54.9976 30.1567 54.956 30.2089 54.9036C30.2611 54.8512 30.3024 54.7889 30.3305 54.7205C30.3585 54.652 30.3728 54.5787 30.3725 54.5047C30.3728 54.3641 30.32 54.2285 30.2248 54.125L30.2063 54.1091C30.1551 54.0559 30.0936 54.0136 30.0257 53.9846C29.9577 53.9556 29.8847 53.9406 29.8108 53.9404H29.2148C29.0959 53.9404 28.9819 53.8931 28.8978 53.8091C28.8137 53.725 28.7665 53.611 28.7665 53.4921C28.7665 53.3732 28.8137 53.2591 28.8978 53.1751C28.9819 53.091 29.0959 53.0438 29.2148 53.0438H29.4179C29.545 53.0326 29.6643 52.9776 29.7554 52.8882C29.8055 52.839 29.8454 52.7803 29.8725 52.7156C29.8997 52.6508 29.9137 52.5813 29.9136 52.5111C29.9136 52.3712 29.8581 52.2371 29.7591 52.1381C29.6602 52.0392 29.5261 51.9837 29.3862 51.9837H28.0809V51.981ZM27.1843 51.5512C27.184 51.4904 27.1966 51.4301 27.2212 51.3745C27.2459 51.3169 27.2808 51.2643 27.324 51.2189C27.404 51.1425 27.5089 51.0976 27.6194 51.0923H29.373C29.7514 51.0923 30.1143 51.2426 30.3818 51.5102C30.6494 51.7777 30.7997 52.1406 30.7997 52.519C30.7988 52.7876 30.723 53.0506 30.5808 53.2785C30.6761 53.3349 30.7646 53.4021 30.8445 53.4789L30.8735 53.5105C31.1295 53.7803 31.272 54.1381 31.2717 54.51C31.271 54.8958 31.1174 55.2657 30.8446 55.5385C30.5717 55.8114 30.2019 55.9649 29.816 55.9656H27.6326C27.5137 55.9656 27.3996 55.9184 27.3156 55.8343C27.2315 55.7503 27.1843 55.6362 27.1843 55.5173V51.5512Z" fill="white"/>
</svg>
