<svg width="99" height="64" viewBox="0 0 99 64" fill="none" xmlns="http://www.w3.org/2000/svg">
<path d="M11.6092 46.8958L11.4712 47.9764C11.4568 48.0924 11.4655 48.21 11.4967 48.3226C11.528 48.4352 11.5812 48.5405 11.6533 48.6324C11.7255 48.7243 11.8151 48.801 11.917 48.8581C12.0189 48.9152 12.1312 48.9516 12.2472 48.9651H47.3729C47.4907 48.9666 47.6076 48.9449 47.717 48.9012C47.8263 48.8576 47.926 48.7928 48.0104 48.7106C48.0947 48.6284 48.162 48.5304 48.2085 48.4222C48.2549 48.314 48.2796 48.1977 48.2811 48.0799C48.2841 48.0436 48.2841 48.007 48.2811 47.9707L48.1374 46.8901C48.0972 46.4857 48.2184 46.0817 48.4746 45.7663C48.7309 45.4508 49.1014 45.2494 49.5054 45.2059C49.7036 45.1844 49.904 45.2021 50.0953 45.258C50.2867 45.314 50.4651 45.407 50.6204 45.5319C50.7757 45.6568 50.9049 45.8111 51.0006 45.986C51.0963 46.1608 51.1566 46.3528 51.1781 46.5509L51.316 47.6028C51.5862 49.9422 50.2584 52 47.8673 52H11.8621C9.49394 52 8.17191 49.9422 8.44207 47.6028L8.58002 46.5509C8.60011 46.3538 8.65891 46.1626 8.75304 45.9882C8.84717 45.8139 8.97479 45.6598 9.12857 45.5349C9.28235 45.4099 9.45928 45.3165 9.64922 45.2601C9.83916 45.2036 10.0384 45.1852 10.2354 45.2059C10.64 45.2508 11.0105 45.4534 11.2666 45.7698C11.5227 46.0862 11.6438 46.4908 11.6034 46.8958" fill="#FF3333"/>
<path d="M43.9702 38.774C44.7298 38.8147 45.4746 38.5527 46.0414 38.0452C46.6081 37.5377 46.9506 36.8262 46.9936 36.0667C46.9963 36.0169 46.9963 35.967 46.9936 35.9172C46.9591 34.2446 45.4359 33.164 43.7402 33.1582H40.3087C39.9276 33.1582 39.5621 33.0068 39.2926 32.7373C39.0231 32.4678 38.8717 32.1023 38.8717 31.7212C38.8717 31.3401 39.0231 30.9746 39.2926 30.7051C39.5621 30.4356 39.9276 30.2842 40.3087 30.2842H42.6079C44.1541 30.221 45.3439 29.2841 45.4186 27.8299C45.4934 26.2607 44.1483 25.0881 42.5102 25.0881H36.9462V38.751H43.9702M48.1834 27.8299C48.1859 28.4294 48.0687 29.0234 47.8388 29.5771C47.6088 30.1308 47.2707 30.6331 46.8441 31.0545L46.7579 31.1522L46.8729 31.2212C47.7135 31.6885 48.4195 32.3645 48.9229 33.184C49.4263 34.0035 49.71 34.9389 49.7468 35.9C49.7669 37.4176 49.1859 38.8816 48.1306 39.9724C47.0752 41.0633 45.6313 41.6924 44.1139 41.7227H35.4919C35.093 41.7166 34.7126 41.5531 34.4338 41.2678C34.1549 40.9824 34.0001 40.5984 34.0032 40.1994V23.8005C34.0001 23.5994 34.0374 23.3997 34.1128 23.2131C34.1881 23.0266 34.3001 22.8571 34.4421 22.7146C34.5841 22.5721 34.7532 22.4594 34.9394 22.3833C35.1257 22.3073 35.3253 22.2693 35.5264 22.2716H42.5102C43.9734 22.2314 45.3927 22.7736 46.4565 23.7791C47.5202 24.7846 48.1413 26.1713 48.1834 27.6344V27.8241" fill="white"/>
<path d="M20.9151 36.1127L20.9554 36.2276L20.9956 36.1127C21.3865 35.032 21.8635 33.8135 22.3636 32.5317C22.8637 31.2499 23.3982 29.8474 23.9098 28.5943C24.4214 27.3413 24.9214 26.1917 25.3928 25.203C25.7031 24.4734 26.0883 23.778 26.5424 23.128C26.7636 22.8533 27.0451 22.6332 27.365 22.4847C27.685 22.3362 28.0348 22.2632 28.3875 22.2716H28.7381C29.1367 22.255 29.5281 22.3814 29.8417 22.628C30.0824 22.8276 30.2385 23.111 30.2785 23.4212L32.4685 40.3776C32.4774 40.5653 32.449 40.7529 32.3848 40.9295C32.3207 41.1062 32.2222 41.2683 32.0949 41.4065C31.7984 41.6547 31.4172 41.7783 31.0315 41.7514C30.6377 41.7735 30.2481 41.6599 29.9279 41.4295C29.7864 41.3329 29.6675 41.2069 29.5792 41.0601C29.4909 40.9132 29.4353 40.7491 29.4163 40.5788C29.3416 40.004 29.2784 39.389 29.2094 38.6992C29.1404 38.0095 28.7726 35.0608 28.6749 34.3078C28.5771 33.5548 27.9736 28.7553 27.7609 27.0137V26.8642L27.0597 28.3357C26.824 28.8415 26.5654 29.445 26.2837 30.152C26.0021 30.859 25.7089 31.6063 25.4388 32.3995C25.1686 33.1927 23.7776 37.0323 23.7776 37.0323C23.6511 37.383 23.4097 38.09 23.2028 38.7567C22.9959 39.4235 22.7832 39.9925 22.7315 40.1017C22.4943 40.5658 22.0826 40.9168 21.5868 41.0774C21.0909 41.238 20.5516 41.1951 20.0874 40.9582C19.7096 40.7696 19.4015 40.4656 19.208 40.0902C19.1505 39.981 18.9551 39.3947 18.7309 38.7452C18.5067 38.0957 18.2883 37.3945 18.1561 37.0208C18.1561 37.0208 16.8053 33.1467 16.5007 32.388C16.1961 31.6293 15.9259 30.8533 15.6557 30.1405C15.3856 29.4278 15.1097 28.83 14.8798 28.3242L14.1728 26.87V27.0194C13.9601 28.7438 13.3508 33.5491 13.2531 34.3135C13.1554 35.078 12.799 37.998 12.7185 38.682C12.6381 39.366 12.5748 39.9983 12.5059 40.5616C12.4869 40.7318 12.4313 40.896 12.343 41.0428C12.2547 41.1896 12.1358 41.3157 11.9943 41.4123C11.6756 41.6414 11.2884 41.7549 10.8964 41.7342C10.5144 41.7599 10.1372 41.6362 9.84457 41.3893C9.71731 41.251 9.61875 41.0889 9.55462 40.9123C9.49048 40.7357 9.46204 40.5481 9.47095 40.3604L11.6322 23.4212C11.6823 23.1228 11.8397 22.853 12.0748 22.6625C12.3828 22.4021 12.7752 22.2631 13.1784 22.2716H13.529C13.8783 22.2629 14.225 22.334 14.5427 22.4794C14.8604 22.6249 15.1408 22.8408 15.3626 23.1108C15.8187 23.7595 16.2041 24.4551 16.5122 25.1858C16.9835 26.1744 17.4778 27.3049 17.9952 28.5771C18.5125 29.8493 19.0298 31.1618 19.5471 32.5144C20.0472 33.8135 20.5185 35.0148 20.9094 36.0954" fill="white"/>
<path d="M16.6272 12.0172H43.2172C45.7233 12.0172 46.9706 13.8968 47.2407 16.3799L47.3557 17.1732C47.401 17.5838 47.2819 17.9956 47.0245 18.3187C46.7671 18.6418 46.3923 18.8499 45.9819 18.8975C45.5792 18.9295 45.1802 18.8013 44.8714 18.5409C44.5625 18.2805 44.3688 17.9088 44.3323 17.5065L44.2173 16.7421C44.1081 15.7994 43.7115 15.0694 42.7516 15.0694H17.0985C16.1386 15.0694 15.742 15.7994 15.627 16.7421L15.5235 17.495C15.487 17.898 15.2923 18.27 14.982 18.5297C14.6718 18.7893 14.2712 18.9154 13.8681 18.8803C13.6646 18.8574 13.4677 18.7947 13.2884 18.6956C13.1092 18.5965 12.9513 18.4631 12.8237 18.3029C12.6961 18.1428 12.6014 17.959 12.5448 17.7622C12.4883 17.5654 12.4712 17.3594 12.4944 17.1559L12.6036 16.3627C12.9025 13.8853 14.144 12 16.6272 12" fill="#FF3333"/>
<path d="M64.4501 29.8934C64.2662 30.6004 64.0765 31.3591 63.8753 32.1926C63.6741 33.026 63.473 33.7732 63.3005 34.4917C63.1281 35.2102 62.9269 35.8655 62.7257 36.423C62.6182 36.8197 62.4719 37.2047 62.2889 37.5726C62.1762 37.755 62.0148 37.9023 61.8228 37.9978C61.6308 38.0933 61.416 38.1332 61.2025 38.1129C61.0081 38.1081 60.815 38.0791 60.6277 38.0267C60.5028 37.9889 60.3871 37.9254 60.2881 37.8403C60.1891 37.7552 60.109 37.6503 60.0529 37.5324C59.871 37.1481 59.7247 36.7479 59.6161 36.3368C59.4436 35.762 59.2597 35.0608 59.0413 34.2848C58.8229 33.5088 58.6562 32.6926 58.4665 31.8247C58.2768 30.9567 58.0929 30.152 57.9434 29.4105C57.794 28.6691 57.656 28.031 57.5526 27.5137C57.4491 26.9964 57.3916 26.6803 57.3744 26.5711C57.3712 26.527 57.3712 26.4829 57.3744 26.4389V26.3641C57.3712 26.2614 57.3925 26.1593 57.4365 26.0664C57.4804 25.9735 57.5458 25.8923 57.6273 25.8296C57.8034 25.6903 58.0237 25.6189 58.2481 25.6284C58.4503 25.6196 58.6505 25.6716 58.8229 25.7778C58.9887 25.9017 59.1 26.0851 59.1333 26.2894C59.1333 26.2894 59.1677 26.5021 59.2367 26.8642C59.3057 27.2263 59.4034 27.6574 59.5126 28.192C59.6218 28.7265 59.7483 29.3416 59.8805 30.0141C60.0127 30.6866 60.1564 31.3706 60.3116 32.0604C60.4668 32.7501 60.6105 33.4111 60.7599 34.0606C60.9094 34.7102 61.0416 35.262 61.1738 35.7275C61.3002 35.2907 61.4439 34.7906 61.5991 34.2273C61.7543 33.664 61.9153 33.0777 62.0705 32.5029C62.2257 31.9282 62.3694 31.3016 62.5131 30.7038C62.6567 30.106 62.789 29.5542 62.9154 29.0254C63.0419 28.4966 63.1396 28.054 63.2315 27.6517C63.3235 27.2493 63.3925 26.9562 63.4442 26.7607C63.5023 26.5348 63.6312 26.3333 63.8121 26.1859C63.9877 26.0265 64.2132 25.9331 64.4501 25.9215C64.7032 25.9099 64.952 25.9894 65.1514 26.1457C65.3301 26.291 65.4522 26.4944 65.4962 26.7205C65.6514 27.347 65.8009 28.0598 65.9676 28.8415C66.1343 29.6232 66.3125 30.4107 66.4906 31.2097C66.6688 32.0086 66.8643 32.7961 67.0654 33.5663C67.2666 34.3365 67.4505 35.0148 67.6402 35.6068C67.7667 35.1413 67.9104 34.5895 68.0598 33.9457C68.2093 33.3019 68.353 32.6351 68.5082 31.9454C68.6634 31.2556 68.8186 30.5889 68.9565 29.9164C69.0945 29.2439 69.2324 28.6403 69.3474 28.1058C69.4623 27.5712 69.56 27.1344 69.6233 26.801C69.6865 26.4676 69.7325 26.2837 69.7325 26.2722C69.7724 26.072 69.8824 25.8926 70.0429 25.7663C70.2146 25.6588 70.4153 25.6066 70.6177 25.6169C70.8436 25.609 71.0651 25.6802 71.2442 25.8181C71.3246 25.8817 71.3893 25.9631 71.4332 26.0558C71.477 26.1485 71.4989 26.2501 71.4971 26.3526V26.4274C71.4999 26.4733 71.4999 26.5194 71.4971 26.5653C71.4971 26.6688 71.4224 26.9792 71.3132 27.508C71.204 28.0368 71.0718 28.6576 70.9166 29.399C70.7614 30.1405 70.5832 30.9453 70.3935 31.8017C70.2038 32.6581 70.0026 33.4743 69.8187 34.2503C69.6348 35.0263 69.4508 35.7103 69.2439 36.2966C69.1362 36.7042 68.9899 37.1007 68.8071 37.4807C68.691 37.722 68.4845 37.9079 68.2323 37.998C68.0468 38.0607 67.8531 38.0955 67.6575 38.1014C67.579 38.1071 67.5003 38.1071 67.4218 38.1014C67.3089 38.0854 67.1974 38.0604 67.0884 38.0267C66.965 37.9828 66.8488 37.9208 66.7435 37.8428C66.623 37.7539 66.5279 37.635 66.4676 37.4979C66.2997 37.1025 66.1614 36.6952 66.0538 36.2793C65.8871 35.7046 65.7147 35.0723 65.525 34.3595C65.3353 33.6468 65.1571 32.8881 64.9502 32.1063C64.7433 31.3246 64.5996 30.5946 64.4444 29.9164" fill="white"/>
<path d="M74.6182 34.5147C74.4228 35.1355 74.2504 35.7103 74.1067 36.2391C73.963 36.7679 73.8135 37.199 73.6871 37.5382C73.6566 37.7668 73.5365 37.974 73.3533 38.1141C73.17 38.2543 72.9386 38.3159 72.7099 38.2854C72.4813 38.2549 72.2741 38.1348 72.1339 37.9516C71.9938 37.7683 71.9322 37.5369 71.9627 37.3082C71.9616 37.2222 71.9752 37.1367 72.0029 37.0553L72.2443 36.2564C72.3823 35.808 72.5605 35.2505 72.7789 34.5722C72.9973 33.8939 73.2445 33.1697 73.5089 32.3707C73.7733 31.5718 74.0492 30.7786 74.3308 29.9968C74.6125 29.2151 74.9056 28.4851 75.17 27.8126C75.3908 27.2475 75.6501 26.6983 75.946 26.1687C76.0299 25.9767 76.1783 25.8201 76.3656 25.7261C76.5929 25.6397 76.8354 25.6006 77.0784 25.6111C77.3281 25.606 77.5763 25.6509 77.8083 25.7434C77.9048 25.7896 77.9911 25.8545 78.0622 25.9345C78.1332 26.0144 78.1876 26.1077 78.2222 26.2089C78.4061 26.594 78.6246 27.1171 78.8717 27.7666C79.1189 28.4161 79.3948 29.1231 79.6707 29.8819C79.9466 30.6406 80.2455 31.4108 80.4984 32.1811C80.7513 32.9513 81.0215 33.6985 81.2456 34.3768C81.4698 35.055 81.6652 35.6356 81.8204 36.1012C81.9756 36.5667 82.0848 36.8886 82.1193 37.0323C82.1471 37.1137 82.1607 37.1993 82.1595 37.2852C82.1654 37.3925 82.1472 37.4998 82.1065 37.5992C82.0657 37.6986 82.0033 37.7877 81.9239 37.86C81.8329 37.9411 81.7264 38.0029 81.6107 38.0414C81.4951 38.0799 81.3728 38.0945 81.2514 38.0842C81.0725 38.101 80.8939 38.0497 80.7513 37.9405C80.6307 37.8273 80.5415 37.6847 80.4926 37.5267C80.3604 37.1875 80.211 36.7564 80.0328 36.2276C79.8546 35.6988 79.6707 35.124 79.458 34.5032H74.601M78.912 32.8191C78.6361 31.9799 78.3831 31.2097 78.136 30.5199C77.8888 29.8301 77.6704 29.1691 77.3945 28.5139C77.3313 28.3702 77.2623 28.2092 77.1933 28.0138C77.1243 27.8184 77.0784 27.7206 77.0669 27.6862C77.013 27.7844 76.9706 27.8886 76.9404 27.9965C76.8657 28.2035 76.8025 28.3702 76.7335 28.5139C76.4748 29.1461 76.2277 29.8129 75.9863 30.5199C75.7448 31.2269 75.4919 31.9914 75.2218 32.8191H78.912Z" fill="white"/>
<path d="M85.5163 33.2214C85.4489 33.154 85.3874 33.0809 85.3324 33.003L85.1427 32.7386C84.9588 32.48 84.7691 32.1638 84.5679 31.7959C84.3668 31.4281 84.1368 31.0372 83.9242 30.6464C83.7115 30.2555 83.5046 29.8129 83.3091 29.3933C83.1137 28.9737 82.9183 28.5828 82.7631 28.2437C82.6079 27.9046 82.4584 27.5655 82.3435 27.301C82.2571 27.1155 82.186 26.9233 82.1308 26.7263C82.1085 26.6783 82.0911 26.6283 82.0791 26.5768C82.0791 26.5768 82.0791 26.5021 82.0791 26.4331C82.0784 26.326 82.0994 26.2198 82.1409 26.121C82.1824 26.0222 82.2435 25.9328 82.3205 25.8583C82.4109 25.7757 82.5171 25.7123 82.6327 25.6718C82.7482 25.6313 82.8708 25.6146 82.993 25.6226C83.0973 25.6109 83.2029 25.6223 83.3022 25.6561C83.4016 25.6899 83.4923 25.7452 83.5678 25.8181C83.6688 25.9313 83.7486 26.0617 83.8035 26.2032L83.9931 26.6285C84.0909 26.847 84.2116 27.1171 84.3495 27.439C84.4875 27.7609 84.6542 28.1173 84.8381 28.5081C85.022 28.899 85.2002 29.2726 85.4129 29.6577L85.9589 30.7326C86.107 31.0218 86.2721 31.3021 86.4533 31.5718C86.7464 31.1141 87.0131 30.6401 87.2522 30.152C87.5339 29.5772 87.827 29.0312 88.0627 28.4736C88.2984 27.9161 88.5455 27.4275 88.741 27.0079L89.0801 26.2089C89.137 26.0672 89.2187 25.9368 89.3215 25.8238C89.395 25.7481 89.4854 25.6909 89.5854 25.6569C89.6853 25.6229 89.7919 25.6131 89.8963 25.6284C90.0185 25.6196 90.1413 25.636 90.257 25.6766C90.3726 25.7171 90.4788 25.7809 90.5688 25.8641C90.6478 25.9371 90.7102 26.0262 90.7518 26.1253C90.7934 26.2244 90.8134 26.3314 90.8102 26.4389C90.8162 26.4866 90.8162 26.5348 90.8102 26.5826L90.7642 26.732L90.5401 27.3068C90.4308 27.577 90.2929 27.8816 90.1262 28.2495C89.9595 28.6173 89.7871 29.0024 89.5917 29.399C89.3962 29.7957 89.1778 30.2325 88.9651 30.6521C88.7524 31.0717 88.5398 31.4568 88.3271 31.8017C88.1144 32.1466 87.9132 32.4972 87.7523 32.7501C87.6422 32.911 87.5171 33.0611 87.3787 33.1984V37.222C87.3843 37.3392 87.3658 37.4563 87.3242 37.5661C87.2827 37.6758 87.2191 37.7759 87.1373 37.86C86.9727 38.0226 86.7507 38.1137 86.5194 38.1137C86.2881 38.1137 86.0661 38.0226 85.9015 37.86C85.8133 37.7744 85.7438 37.6715 85.6973 37.5578C85.6508 37.444 85.6283 37.3219 85.6313 37.199V33.1755" fill="white"/>
</svg>
