<svg width="99" height="64" viewBox="0 0 99 64" fill="none" xmlns="http://www.w3.org/2000/svg">
<path d="M11.2018 46.8958L11.0639 47.9764C11.0494 48.0924 11.0581 48.21 11.0894 48.3226C11.1206 48.4352 11.1738 48.5405 11.246 48.6324C11.3181 48.7243 11.4077 48.801 11.5097 48.8581C11.6116 48.9152 11.7238 48.9516 11.8399 48.9651H46.9656C47.0834 48.9666 47.2003 48.9449 47.3096 48.9012C47.419 48.8576 47.5187 48.7928 47.603 48.7106C47.6874 48.6284 47.7547 48.5304 47.8011 48.4222C47.8476 48.314 47.8723 48.1977 47.8738 48.0799C47.8768 48.0436 47.8768 48.007 47.8738 47.9707L47.7301 46.8901C47.6898 46.4857 47.811 46.0817 48.0673 45.7663C48.3235 45.4508 48.694 45.2494 49.0981 45.2059C49.2962 45.1844 49.4967 45.2021 49.688 45.258C49.8793 45.314 50.0577 45.407 50.213 45.5319C50.3684 45.6568 50.4976 45.8111 50.5933 45.986C50.689 46.1608 50.7493 46.3528 50.7707 46.5509L50.9087 47.6028C51.1788 49.9422 49.8511 52 47.4599 52H11.4548C9.08659 52 7.76457 49.9422 8.03472 47.6028L8.17267 46.5509C8.19276 46.3538 8.25156 46.1626 8.34569 45.9882C8.43982 45.8139 8.56744 45.6598 8.72122 45.5349C8.87501 45.4099 9.05194 45.3165 9.24187 45.2601C9.43181 45.2036 9.63102 45.1852 9.82808 45.2059C10.2326 45.2508 10.6032 45.4534 10.8593 45.7698C11.1154 46.0862 11.2364 46.4908 11.1961 46.8958" fill="white" fill-opacity="0.6"/>
<path d="M43.5628 38.774C44.3225 38.8147 45.0673 38.5527 45.634 38.0452C46.2008 37.5377 46.5432 36.8262 46.5862 36.0667C46.589 36.0169 46.589 35.967 46.5862 35.9172C46.5517 34.2446 45.0285 33.164 43.3329 33.1582H39.9014C39.5203 33.1582 39.1547 33.0068 38.8853 32.7373C38.6158 32.4678 38.4644 32.1023 38.4644 31.7212C38.4644 31.3401 38.6158 30.9746 38.8853 30.7051C39.1547 30.4356 39.5203 30.2842 39.9014 30.2842H42.2005C43.7467 30.221 44.9366 29.2841 45.0113 27.8299C45.086 26.2607 43.741 25.0881 42.1028 25.0881H36.5388V38.751H43.5628M47.7761 27.8299C47.7786 28.4294 47.6614 29.0234 47.4314 29.5771C47.2015 30.1308 46.8633 30.6331 46.4368 31.0545L46.3506 31.1522L46.4655 31.2212C47.3061 31.6885 48.0121 32.3645 48.5155 33.184C49.0189 34.0035 49.3027 34.9389 49.3395 35.9C49.3595 37.4176 48.7785 38.8816 47.7232 39.9724C46.6679 41.0633 45.224 41.6924 43.7065 41.7227H35.0846C34.6856 41.7166 34.3053 41.5531 34.0264 41.2678C33.7475 40.9824 33.5928 40.5984 33.5959 40.1994V23.8005C33.5928 23.5994 33.63 23.3997 33.7054 23.2131C33.7808 23.0266 33.8928 22.8571 34.0348 22.7146C34.1768 22.5721 34.3459 22.4594 34.5321 22.3833C34.7183 22.3073 34.9179 22.2693 35.1191 22.2716H42.1028C43.566 22.2314 44.9854 22.7736 46.0491 23.7791C47.1128 24.7846 47.734 26.1713 47.7761 27.6344V27.8241" fill="white" fill-opacity="0.6"/>
<path d="M20.5078 36.1127L20.548 36.2276L20.5882 36.1127C20.9791 35.032 21.4562 33.8135 21.9563 32.5317C22.4563 31.2499 22.9909 29.8474 23.5025 28.5943C24.014 27.3413 24.5141 26.1917 24.9854 25.203C25.2957 24.4734 25.681 23.778 26.135 23.128C26.3563 22.8533 26.6378 22.6332 26.9577 22.4847C27.2776 22.3362 27.6275 22.2632 27.9801 22.2716H28.3307C28.7293 22.255 29.1207 22.3814 29.4343 22.628C29.6751 22.8276 29.8312 23.111 29.8712 23.4212L32.0612 40.3776C32.0701 40.5653 32.0416 40.7529 31.9775 40.9295C31.9134 41.1062 31.8148 41.2683 31.6875 41.4065C31.391 41.6547 31.0099 41.7783 30.6242 41.7514C30.2303 41.7735 29.8408 41.6599 29.5206 41.4295C29.3791 41.3329 29.2601 41.2069 29.1718 41.0601C29.0835 40.9132 29.028 40.7491 29.009 40.5788C28.9343 40.004 28.871 39.389 28.8021 38.6992C28.7331 38.0095 28.3652 35.0608 28.2675 34.3078C28.1698 33.5548 27.5663 28.7553 27.3536 27.0137V26.8642L26.6523 28.3357C26.4167 28.8415 26.158 29.445 25.8764 30.152C25.5947 30.859 25.3016 31.6063 25.0314 32.3995C24.7613 33.1927 23.3703 37.0323 23.3703 37.0323C23.2438 37.383 23.0024 38.09 22.7955 38.7567C22.5885 39.4235 22.3759 39.9925 22.3241 40.1017C22.087 40.5658 21.6752 40.9168 21.1794 41.0774C20.6836 41.238 20.1443 41.1951 19.6801 40.9582C19.3022 40.7696 18.9942 40.4656 18.8006 40.0902C18.7432 39.981 18.5477 39.3947 18.3236 38.7452C18.0994 38.0957 17.881 37.3945 17.7488 37.0208C17.7488 37.0208 16.398 33.1467 16.0933 32.388C15.7887 31.6293 15.5186 30.8533 15.2484 30.1405C14.9782 29.4278 14.7023 28.83 14.4724 28.3242L13.7654 26.87V27.0194C13.5528 28.7438 12.9435 33.5491 12.8458 34.3135C12.748 35.078 12.3917 37.998 12.3112 38.682C12.2307 39.366 12.1675 39.9983 12.0985 40.5616C12.0795 40.7318 12.024 40.896 11.9357 41.0428C11.8474 41.1896 11.7284 41.3157 11.587 41.4123C11.2683 41.6414 10.881 41.7549 10.4891 41.7342C10.107 41.7599 9.72989 41.6362 9.43722 41.3893C9.30996 41.251 9.2114 41.0889 9.14727 40.9123C9.08313 40.7357 9.0547 40.5481 9.0636 40.3604L11.2248 23.4212C11.275 23.1228 11.4324 22.853 11.6674 22.6625C11.9754 22.4021 12.3678 22.2631 12.771 22.2716H13.1217C13.471 22.2629 13.8176 22.334 14.1354 22.4794C14.4531 22.6249 14.7335 22.8408 14.9553 23.1108C15.4114 23.7595 15.7968 24.4551 16.1048 25.1858C16.5762 26.1744 17.0705 27.3049 17.5878 28.5771C18.1051 29.8493 18.6224 31.1618 19.1398 32.5144C19.6398 33.8135 20.1112 35.0148 20.502 36.0954" fill="white" fill-opacity="0.6"/>
<path d="M16.2198 12.0172H42.8098C45.3159 12.0172 46.5632 13.8968 46.8334 16.3799L46.9484 17.1732C46.9936 17.5838 46.8746 17.9956 46.6172 18.3187C46.3598 18.6418 45.9849 18.8499 45.5746 18.8975C45.1719 18.9295 44.7729 18.8013 44.464 18.5409C44.1552 18.2805 43.9615 17.9088 43.9249 17.5065L43.81 16.7421C43.7008 15.7994 43.3042 15.0694 42.3442 15.0694H16.6911C15.7312 15.0694 15.3346 15.7994 15.2197 16.7421L15.1162 17.495C15.0797 17.898 14.885 18.27 14.5747 18.5297C14.2644 18.7893 13.8639 18.9154 13.4608 18.8803C13.2573 18.8574 13.0603 18.7947 12.8811 18.6956C12.7019 18.5965 12.544 18.4631 12.4164 18.3029C12.2888 18.1428 12.194 17.959 12.1375 17.7622C12.081 17.5654 12.0638 17.3594 12.087 17.1559L12.1962 16.3627C12.4951 13.8853 13.7367 12 16.2198 12" fill="white" fill-opacity="0.6"/>
<path d="M64.0428 29.8934C63.8588 30.6004 63.6691 31.3591 63.468 32.1926C63.2668 33.026 63.0656 33.7732 62.8932 34.4917C62.7207 35.2102 62.5196 35.8655 62.3184 36.423C62.2108 36.8197 62.0645 37.2047 61.8815 37.5726C61.7689 37.755 61.6074 37.9023 61.4154 37.9978C61.2235 38.0933 61.0086 38.1332 60.7952 38.1129C60.6007 38.1081 60.4077 38.0791 60.2204 38.0267C60.0954 37.9889 59.9797 37.9254 59.8807 37.8403C59.7818 37.7552 59.7017 37.6503 59.6456 37.5324C59.4636 37.1481 59.3174 36.7479 59.2087 36.3368C59.0363 35.762 58.8524 35.0608 58.6339 34.2848C58.4155 33.5088 58.2488 32.6926 58.0591 31.8247C57.8695 30.9567 57.6855 30.152 57.5361 29.4105C57.3866 28.6691 57.2487 28.031 57.1452 27.5137C57.0418 26.9964 56.9843 26.6803 56.967 26.5711C56.9639 26.527 56.9639 26.4829 56.967 26.4389V26.3641C56.9639 26.2614 56.9852 26.1593 57.0291 26.0664C57.0731 25.9735 57.1385 25.8923 57.2199 25.8296C57.3961 25.6903 57.6164 25.6189 57.8407 25.6284C58.043 25.6196 58.2432 25.6716 58.4155 25.7778C58.5813 25.9017 58.6926 26.0851 58.7259 26.2894C58.7259 26.2894 58.7604 26.5021 58.8294 26.8642C58.8983 27.2263 58.9961 27.6574 59.1053 28.192C59.2145 28.7265 59.3409 29.3416 59.4731 30.0141C59.6053 30.6866 59.749 31.3706 59.9042 32.0604C60.0594 32.7501 60.2031 33.4111 60.3526 34.0606C60.502 34.7102 60.6342 35.262 60.7664 35.7275C60.8929 35.2907 61.0366 34.7906 61.1918 34.2273C61.347 33.664 61.5079 33.0777 61.6631 32.5029C61.8183 31.9282 61.962 31.3016 62.1057 30.7038C62.2494 30.106 62.3816 29.5542 62.5081 29.0254C62.6345 28.4966 62.7322 28.054 62.8242 27.6517C62.9162 27.2493 62.9851 26.9562 63.0369 26.7607C63.0949 26.5348 63.2239 26.3333 63.4047 26.1859C63.5803 26.0265 63.8059 25.9331 64.0428 25.9215C64.2958 25.9099 64.5447 25.9894 64.744 26.1457C64.9228 26.291 65.0448 26.4944 65.0889 26.7205C65.2441 27.347 65.3935 28.0598 65.5602 28.8415C65.7269 29.6232 65.9051 30.4107 66.0833 31.2097C66.2615 32.0086 66.4569 32.7961 66.6581 33.5663C66.8593 34.3365 67.0432 35.0148 67.2329 35.6068C67.3593 35.1413 67.503 34.5895 67.6525 33.9457C67.8019 33.3019 67.9456 32.6351 68.1008 31.9454C68.256 31.2556 68.4112 30.5889 68.5492 29.9164C68.6871 29.2439 68.8251 28.6403 68.94 28.1058C69.055 27.5712 69.1527 27.1344 69.2159 26.801C69.2791 26.4676 69.3251 26.2837 69.3251 26.2722C69.365 26.072 69.4751 25.8926 69.6355 25.7663C69.8073 25.6588 70.0079 25.6066 70.2103 25.6169C70.4362 25.609 70.6578 25.6802 70.8368 25.8181C70.9173 25.8817 70.9819 25.9631 71.0258 26.0558C71.0697 26.1485 71.0916 26.2501 71.0898 26.3526V26.4274C71.0925 26.4733 71.0925 26.5194 71.0898 26.5653C71.0898 26.6688 71.015 26.9792 70.9058 27.508C70.7966 28.0368 70.6644 28.6576 70.5092 29.399C70.354 30.1405 70.1758 30.9453 69.9861 31.8017C69.7965 32.6581 69.5953 33.4743 69.4113 34.2503C69.2274 35.0263 69.0435 35.7103 68.8366 36.2966C68.7288 36.7042 68.5825 37.1007 68.3997 37.4807C68.2837 37.722 68.0771 37.9079 67.8249 37.998C67.6395 38.0607 67.4458 38.0955 67.2501 38.1014C67.1717 38.1071 67.0929 38.1071 67.0145 38.1014C66.9015 38.0854 66.79 38.0604 66.6811 38.0267C66.5577 37.9828 66.4415 37.9208 66.3362 37.8428C66.2157 37.7539 66.1205 37.635 66.0603 37.4979C65.8924 37.1025 65.7541 36.6952 65.6464 36.2793C65.4798 35.7046 65.3073 35.0723 65.1176 34.3595C64.9279 33.6468 64.7498 32.8881 64.5428 32.1063C64.3359 31.3246 64.1922 30.5946 64.037 29.9164" fill="white" fill-opacity="0.6"/>
<path d="M74.2109 34.5147C74.0155 35.1355 73.843 35.7103 73.6993 36.2391C73.5556 36.7679 73.4062 37.199 73.2797 37.5382C73.2492 37.7668 73.1292 37.974 72.9459 38.1141C72.7627 38.2543 72.5312 38.3159 72.3026 38.2854C72.0739 38.2549 71.8667 38.1348 71.7266 37.9516C71.5864 37.7683 71.5248 37.5369 71.5553 37.3082C71.5542 37.2222 71.5678 37.1367 71.5956 37.0553L71.837 36.2564C71.9749 35.808 72.1531 35.2505 72.3715 34.5722C72.59 33.8939 72.8371 33.1697 73.1015 32.3707C73.3659 31.5718 73.6418 30.7786 73.9235 29.9968C74.2051 29.2151 74.4983 28.4851 74.7627 27.8126C74.9834 27.2475 75.2427 26.6983 75.5387 26.1687C75.6225 25.9767 75.771 25.8201 75.9583 25.7261C76.1856 25.6397 76.4281 25.6006 76.671 25.6111C76.9207 25.606 77.169 25.6509 77.401 25.7434C77.4975 25.7896 77.5837 25.8545 77.6548 25.9345C77.7259 26.0144 77.7803 26.1077 77.8149 26.2089C77.9988 26.594 78.2172 27.1171 78.4644 27.7666C78.7115 28.4161 78.9874 29.1231 79.2633 29.8819C79.5392 30.6406 79.8381 31.4108 80.091 32.1811C80.344 32.9513 80.6141 33.6985 80.8383 34.3768C81.0624 35.055 81.2579 35.6356 81.4131 36.1012C81.5683 36.5667 81.6775 36.8886 81.712 37.0323C81.7397 37.1137 81.7533 37.1993 81.7522 37.2852C81.758 37.3925 81.7399 37.4998 81.6991 37.5992C81.6584 37.6986 81.596 37.7877 81.5165 37.86C81.4256 37.9411 81.319 38.0029 81.2034 38.0414C81.0877 38.0799 80.9655 38.0945 80.844 38.0842C80.6652 38.101 80.4866 38.0497 80.344 37.9405C80.2233 37.8273 80.1342 37.6847 80.0853 37.5267C79.9531 37.1875 79.8036 36.7564 79.6255 36.2276C79.4473 35.6988 79.2633 35.124 79.0507 34.5032H74.1936M78.5046 32.8191C78.2287 31.9799 77.9758 31.2097 77.7286 30.5199C77.4815 29.8301 77.2631 29.1691 76.9872 28.5139C76.9239 28.3702 76.8549 28.2092 76.786 28.0138C76.717 27.8184 76.671 27.7206 76.6595 27.6862C76.6056 27.7844 76.5632 27.8886 76.5331 27.9965C76.4583 28.2035 76.3951 28.3702 76.3261 28.5139C76.0675 29.1461 75.8203 29.8129 75.5789 30.5199C75.3375 31.2269 75.0846 31.9914 74.8144 32.8191H78.5046Z" fill="white" fill-opacity="0.6"/>
<path d="M85.109 33.2214C85.0416 33.154 84.9801 33.0809 84.9251 33.003L84.7354 32.7386C84.5515 32.48 84.3618 32.1638 84.1606 31.7959C83.9594 31.4281 83.7295 31.0372 83.5168 30.6464C83.3041 30.2555 83.0972 29.8129 82.9018 29.3933C82.7064 28.9737 82.5109 28.5828 82.3557 28.2437C82.2005 27.9046 82.0511 27.5655 81.9361 27.301C81.8498 27.1155 81.7786 26.9233 81.7235 26.7263C81.7011 26.6783 81.6838 26.6283 81.6717 26.5768C81.6717 26.5768 81.6717 26.5021 81.6717 26.4331C81.6711 26.326 81.6921 26.2198 81.7336 26.121C81.7751 26.0222 81.8362 25.9328 81.9131 25.8583C82.0036 25.7757 82.1097 25.7123 82.2253 25.6718C82.3409 25.6313 82.4635 25.6146 82.5856 25.6226C82.6899 25.6109 82.7955 25.6223 82.8949 25.6561C82.9943 25.6899 83.0849 25.7452 83.1604 25.8181C83.2615 25.9313 83.3413 26.0617 83.3961 26.2032L83.5858 26.6285C83.6835 26.847 83.8042 27.1171 83.9422 27.439C84.0801 27.7609 84.2468 28.1173 84.4307 28.5081C84.6147 28.899 84.7929 29.2726 85.0055 29.6577L85.5516 30.7326C85.6996 31.0218 85.8647 31.3021 86.0459 31.5718C86.339 31.1141 86.6058 30.6401 86.8449 30.152C87.1265 29.5772 87.4197 29.0312 87.6553 28.4736C87.891 27.9161 88.1382 27.4275 88.3336 27.0079L88.6727 26.2089C88.7296 26.0672 88.8114 25.9368 88.9141 25.8238C88.9876 25.7481 89.0781 25.6909 89.178 25.6569C89.2779 25.6229 89.3845 25.6131 89.4889 25.6284C89.6112 25.6196 89.7339 25.636 89.8496 25.6766C89.9653 25.7171 90.0714 25.7809 90.1615 25.8641C90.2404 25.9371 90.3028 26.0262 90.3444 26.1253C90.3861 26.2244 90.406 26.3314 90.4029 26.4389C90.4089 26.4866 90.4089 26.5348 90.4029 26.5826L90.3569 26.732L90.1327 27.3068C90.0235 27.577 89.8856 27.8816 89.7189 28.2495C89.5522 28.6173 89.3797 29.0024 89.1843 29.399C88.9889 29.7957 88.7704 30.2325 88.5578 30.6521C88.3451 31.0717 88.1324 31.4568 87.9197 31.8017C87.7071 32.1466 87.5059 32.4972 87.345 32.7501C87.2348 32.911 87.1097 33.0611 86.9713 33.1984V37.222C86.977 37.3392 86.9584 37.4563 86.9169 37.5661C86.8754 37.6758 86.8117 37.7759 86.7299 37.86C86.5653 38.0226 86.3433 38.1137 86.112 38.1137C85.8807 38.1137 85.6587 38.0226 85.4941 37.86C85.4059 37.7744 85.3364 37.6715 85.2899 37.5578C85.2434 37.444 85.221 37.3219 85.224 37.199V33.1755" fill="white" fill-opacity="0.6"/>
</svg>
