<svg width="160" height="64" viewBox="0 0 160 64" fill="none" xmlns="http://www.w3.org/2000/svg">
<path d="M134.72 30.1959C133.951 30.7294 132.837 30.9922 131.308 30.9922H129.795L130.957 24.7257H132.068C133.338 24.7257 134.262 24.9288 134.899 25.3428C135.401 25.6693 135.99 26.3102 135.99 27.5325C135.99 28.9976 135.301 29.7898 134.72 30.1959ZM44.4137 38.0628H32.693L33.4494 33.9621H40.7987L41.6348 29.3479H34.3571L35.0618 25.295H46.7586L44.4137 38.0628ZM141.038 21.7756C139.314 20.5932 136.706 20 133.29 20H124.337L121.012 38.0628H109.288L110.036 33.9621H117.103L117.939 29.3638L110.884 29.3758L111.641 25.295H118.914L119.882 20H105.103L101.946 37.1352H96.5279L99.7089 20H91.9853L88.8242 37.1352H83.5411L86.7261 20H79.0105L75.6663 38.0628H63.858L64.6025 33.9661H71.697L72.5331 29.3877L65.4465 29.3837L66.2029 25.295H73.5562L74.5197 20H28.4848L25.8652 34.3165L20.6458 20H12.6316L8.31995 43.3578H15.9719L18.5796 28.6472L23.6476 43.3578H51.0743L54.4066 25.291H58.6983L55.362 43.3578H127.526L129.616 31.9516L133.004 43.3578H140.66L137.152 34.0378L137.952 33.8626C139.716 33.4884 141.098 32.6722 142.053 31.454C143.017 30.2198 143.502 28.6432 143.502 26.7442C143.502 24.5346 142.698 22.9063 141.034 21.7677L141.038 21.7756ZM147.34 40.5988L148.383 40.5431C148.56 40.5444 148.736 40.512 148.901 40.4476C149.016 40.4028 149.113 40.3199 149.176 40.2127C149.235 40.1116 149.262 39.9951 149.255 39.8782C149.253 39.7967 149.233 39.7167 149.197 39.6438C149.16 39.5709 149.108 39.5069 149.044 39.4562C148.913 39.3527 148.71 39.3089 148.435 39.3209L147.276 39.3806L147.34 40.5988ZM146.954 42.6691L146.767 38.9984L148.399 38.9188C148.65 38.8944 148.904 38.9146 149.148 38.9785C149.323 39.0342 149.466 39.1457 149.574 39.3049C149.685 39.4656 149.747 39.6551 149.753 39.8504C149.763 39.9714 149.749 40.0933 149.711 40.2088C149.673 40.3243 149.613 40.4312 149.534 40.5232C149.331 40.732 149.062 40.8654 148.773 40.9014C148.881 40.9437 148.983 40.9999 149.076 41.0686C149.223 41.192 149.367 41.3473 149.502 41.5384L150.187 42.5058L149.582 42.5377L149.056 41.7972C148.939 41.6284 148.814 41.465 148.682 41.3075C148.607 41.2169 148.518 41.139 148.419 41.0766C148.35 41.0353 148.275 41.0057 148.196 40.989C148.105 40.9808 148.013 40.9808 147.921 40.989L147.364 41.0129L147.444 42.6452L146.954 42.6731V42.6691Z" fill="#ADEC57"/>
<path d="M145.365 40.8974C145.345 40.5231 145.398 40.1484 145.523 39.795C145.648 39.4415 145.842 39.1163 146.093 38.8382C146.344 38.5602 146.649 38.3347 146.988 38.175C147.327 38.0152 147.694 37.9243 148.069 37.9075C149.633 37.8279 150.975 39.0342 151.055 40.6068L151.063 40.7501C151.038 41.4773 150.736 42.1675 150.219 42.6796C149.702 43.1917 149.009 43.4871 148.282 43.5054C147.554 43.5237 146.847 43.2635 146.305 42.7781C145.763 42.2926 145.427 41.6224 145.365 40.8974ZM148.033 37.3223C147.582 37.3437 147.14 37.4541 146.731 37.6474C146.323 37.8406 145.957 38.1127 145.655 38.4481C145.353 38.7834 145.12 39.1753 144.97 39.6012C144.819 40.027 144.755 40.4784 144.78 40.9293C144.875 41.8029 145.3 42.6073 145.968 43.1775C146.637 43.7476 147.498 44.0403 148.376 43.9955C149.253 43.9507 150.08 43.5718 150.687 42.9364C151.294 42.3011 151.635 41.4576 151.64 40.5789C151.593 39.6694 151.186 38.8119 150.51 38.202C149.833 37.5921 148.942 37.2757 148.033 37.3223Z" fill="#ADEC57"/>
</svg>
