<svg width="160" height="64" viewBox="0 0 160 64" fill="none" xmlns="http://www.w3.org/2000/svg">
<path d="M134.4 30.1959C133.631 30.7294 132.517 30.9922 130.988 30.9922H129.475L130.638 24.7257H131.748C133.018 24.7257 133.942 24.9288 134.579 25.3428C135.081 25.6693 135.67 26.3102 135.67 27.5325C135.67 28.9976 134.981 29.7898 134.4 30.1959ZM44.0937 38.0628H32.373L33.1295 33.9621H40.4788L41.3149 29.3479H34.0372L34.7419 25.295H46.4387L44.0937 38.0628ZM140.718 21.7756C138.994 20.5932 136.386 20 132.971 20H124.017L120.692 38.0628H108.968L109.716 33.9621H116.783L117.619 29.3638L110.564 29.3758L111.321 25.295H118.594L119.562 20H104.783L101.626 37.1352H96.2079L99.3889 20H91.6653L88.5043 37.1352H83.2212L86.4062 20H78.6906L75.3463 38.0628H63.538L64.2825 33.9661H71.3771L72.2131 29.3877L65.1265 29.3837L65.883 25.295H73.2363L74.1997 20H28.1649L25.5452 34.3165L20.3259 20H12.3117L8 43.3578H15.6519L18.2596 28.6472L23.3277 43.3578H50.7543L54.0866 25.291H58.3784L55.0421 43.3578H127.206L129.296 31.9516L132.684 43.3578H140.34L136.832 34.0378L137.633 33.8626C139.396 33.4884 140.778 32.6722 141.733 31.454C142.697 30.2198 143.182 28.6432 143.182 26.7442C143.182 24.5346 142.378 22.9063 140.714 21.7677L140.718 21.7756ZM147.02 40.5988L148.063 40.5431C148.24 40.5444 148.416 40.512 148.581 40.4476C148.696 40.4028 148.793 40.3199 148.856 40.2127C148.915 40.1116 148.942 39.9951 148.935 39.8782C148.933 39.7967 148.913 39.7167 148.877 39.6438C148.84 39.5709 148.788 39.5069 148.724 39.4562C148.593 39.3527 148.39 39.3089 148.115 39.3209L146.957 39.3806L147.02 40.5988ZM146.634 42.6691L146.447 38.9984L148.079 38.9188C148.33 38.8944 148.584 38.9146 148.828 38.9785C149.003 39.0342 149.146 39.1457 149.254 39.3049C149.365 39.4656 149.427 39.6551 149.433 39.8504C149.443 39.9714 149.429 40.0933 149.391 40.2088C149.353 40.3243 149.293 40.4312 149.214 40.5232C149.011 40.732 148.743 40.8654 148.453 40.9014C148.561 40.9437 148.663 40.9999 148.756 41.0686C148.903 41.192 149.047 41.3473 149.182 41.5384L149.867 42.5058L149.262 42.5377L148.736 41.7972C148.619 41.6284 148.494 41.465 148.362 41.3075C148.287 41.2169 148.199 41.139 148.099 41.0766C148.03 41.0353 147.955 41.0057 147.876 40.989C147.785 40.9808 147.693 40.9808 147.601 40.989L147.044 41.0129L147.124 42.6452L146.634 42.6731V42.6691Z" fill="white" fill-opacity="0.6"/>
<path d="M145.046 40.8974C145.025 40.5231 145.078 40.1484 145.203 39.795C145.328 39.4415 145.522 39.1163 145.773 38.8382C146.025 38.5602 146.329 38.3347 146.668 38.175C147.007 38.0152 147.374 37.9243 147.749 37.9075C149.313 37.8279 150.655 39.0342 150.735 40.6068L150.743 40.7501C150.718 41.4773 150.416 42.1675 149.899 42.6796C149.382 43.1917 148.689 43.4871 147.962 43.5054C147.234 43.5237 146.527 43.2635 145.985 42.7781C145.443 42.2926 145.107 41.6224 145.046 40.8974ZM147.713 37.3223C147.262 37.3437 146.82 37.4541 146.411 37.6474C146.003 37.8406 145.637 38.1127 145.335 38.4481C145.033 38.7834 144.8 39.1753 144.65 39.6012C144.499 40.027 144.435 40.4784 144.46 40.9293C144.555 41.8029 144.98 42.6073 145.648 43.1775C146.317 43.7476 147.178 44.0403 148.056 43.9955C148.933 43.9507 149.76 43.5718 150.367 42.9364C150.974 42.3011 151.315 41.4576 151.32 40.5789C151.273 39.6694 150.866 38.8119 150.19 38.202C149.513 37.5921 148.623 37.2757 147.713 37.3223Z" fill="white" fill-opacity="0.6"/>
</svg>
