<svg width="57" height="64" viewBox="0 0 57 64" fill="none" xmlns="http://www.w3.org/2000/svg">
<path fill-rule="evenodd" clip-rule="evenodd" d="M23.3198 25.938C18.6417 28.6148 18.3139 28.7872 17.958 28.7872H17.5782V29.9613H19.2935V30.5464C19.2935 31.1194 19.2975 31.1354 19.4894 31.1354H19.6853V38.6371H18.2779V39.7271H17.5782V40.9013H39.0974V39.8153L38.4337 39.7672L38.4137 39.2022L38.3897 38.6371H36.9903V31.1354H37.1862C37.3781 31.1354 37.3821 31.1194 37.3821 30.5464V29.9613H39.0974V28.7872H38.7175C38.3617 28.7872 38.0338 28.6148 33.3557 25.938C30.6168 24.3671 28.3578 23.0848 28.3378 23.0848C28.3178 23.0848 26.0587 24.3671 23.3198 25.938ZM21.6325 30.5464C21.6325 31.1194 21.6285 31.1354 21.4366 31.1354H21.2447V38.6371H24.9072V34.8863C24.9072 31.1875 24.9032 31.1354 24.7512 31.1354C24.6073 31.1354 24.5953 31.0793 24.5953 30.5464V29.9613H21.6325V30.5464ZM26.8584 30.5424C26.8584 31.0833 26.8464 31.1234 26.6825 31.1475L26.5065 31.1715V38.5971H30.169V31.1715L29.9931 31.1475C29.8292 31.1234 29.8172 31.0833 29.8172 30.5424V29.9613H26.8584V30.5424ZM32.0803 30.5464C32.0803 31.0793 32.0683 31.1354 31.9243 31.1354C31.7724 31.1354 31.7684 31.1875 31.7684 34.8863V38.6371H35.4309V31.1354H35.239C35.047 31.1354 35.043 31.1194 35.043 30.5464V29.9613H32.0803V30.5464Z" fill="#EAF0F8"/>
<path fill-rule="evenodd" clip-rule="evenodd" d="M25.8068 12.1168C23.1239 12.4614 19.9892 13.5754 17.7981 14.966C15.2511 16.5809 12.9601 18.8771 11.3487 21.4297C10.3011 23.0888 9.26556 25.6534 8.81375 27.6972C8.37393 29.6968 8.24598 32.3817 8.49788 34.4174C9.1736 39.9155 12.1164 44.9206 16.5946 48.1946C18.7137 49.7454 21.4686 50.9877 24.0555 51.5607C26.6905 52.1458 30.0051 52.1458 32.6 51.5647C36.4545 50.6951 39.6652 48.9279 42.456 46.1388C44.0994 44.4918 45.2029 42.961 46.2505 40.8612C47.2541 38.8455 48.0298 36.2207 48.1897 34.2772C48.2177 33.9245 48.2737 33.636 48.3096 33.636C48.3456 33.636 48.3736 32.8506 48.3696 31.8968C48.3656 30.9391 48.3416 30.2098 48.3136 30.2739C48.2896 30.338 48.2217 29.9974 48.1697 29.5125C47.7739 26.0502 46.2185 22.3554 43.9474 19.4902C43.1957 18.5405 41.7603 17.1019 40.8127 16.3485C37.8899 14.0202 34.4273 12.5616 30.7568 12.1087C29.5493 11.9605 26.9943 11.9645 25.8068 12.1168ZM23.3198 25.938C18.6417 28.6148 18.3139 28.7872 17.958 28.7872H17.5782V29.9613H19.2935V30.5464C19.2935 31.1194 19.2975 31.1354 19.4894 31.1354H19.6853V38.6371H18.2779V39.7271H17.5782V40.9013H39.0974V39.8153L38.4337 39.7672L38.4137 39.2022L38.3897 38.6371H36.9903V31.1354H37.1862C37.3781 31.1354 37.3821 31.1194 37.3821 30.5464V29.9613H39.0974V28.7872H38.7175C38.3617 28.7872 38.0338 28.6148 33.3557 25.938C30.6168 24.3671 28.3578 23.0848 28.3378 23.0848C28.3178 23.0848 26.0587 24.3671 23.3198 25.938ZM21.6325 30.5464C21.6325 31.1194 21.6285 31.1354 21.4366 31.1354H21.2447V38.6371H24.9072V34.8863C24.9072 31.1875 24.9032 31.1354 24.7512 31.1354C24.6073 31.1354 24.5953 31.0793 24.5953 30.5464V29.9613H21.6325V30.5464ZM26.8584 30.5424C26.8584 31.0833 26.8464 31.1234 26.6825 31.1475L26.5065 31.1715V38.5971H30.169V31.1715L29.9931 31.1475C29.8292 31.1234 29.8172 31.0833 29.8172 30.5424V29.9613H26.8584V30.5424ZM32.0803 30.5464C32.0803 31.0793 32.0683 31.1354 31.9243 31.1354C31.7724 31.1354 31.7684 31.1875 31.7684 34.8863V38.6371H35.4309V31.1354H35.239C35.047 31.1354 35.043 31.1194 35.043 30.5464V29.9613H32.0803V30.5464ZM8.40991 31.993C8.40991 32.9588 8.42191 33.3555 8.4379 32.8706C8.4499 32.3897 8.4499 31.5963 8.4379 31.1154C8.42191 30.6305 8.40991 31.0272 8.40991 31.993Z" fill="#148CC8"/>
</svg>
