<svg width="150" height="64" viewBox="0 0 150 64" fill="none" xmlns="http://www.w3.org/2000/svg">
<path d="M94.5642 27.9243C92.316 25.949 89.6021 24.9837 86.4642 24.9837C83.3694 24.9837 80.6555 25.9507 78.4056 27.9243C76.1574 29.8566 75.0149 32.5463 75.0149 35.9919C75.0149 39.4373 76.1574 42.1256 78.4056 44.1007C80.6539 46.0331 83.3694 47 86.4641 47C89.6021 47 92.316 46.0331 94.5642 44.1007C96.8556 42.1256 97.9982 39.4373 97.9982 35.9918C97.9982 32.5462 96.8541 29.8567 94.5642 27.9243ZM82.2253 40.4028C81.0395 39.2691 80.4426 37.7972 80.4426 35.9919C80.4426 34.185 81.0349 32.7147 82.2253 31.6222C83.411 30.4886 84.8128 29.9422 86.4625 29.9422C88.1139 29.9422 89.5573 30.4886 90.7447 31.6222C91.972 32.7147 92.5687 34.185 92.5687 35.9919C92.5687 37.7988 91.9767 39.2691 90.7446 40.4028C89.5589 41.495 88.1155 42.0413 86.4625 42.0413C84.8128 42.0413 83.4142 41.4951 82.2253 40.4028ZM106.017 46.4103V17.5792H100.674V46.4103H106.017ZM123.263 25.5708V37.0743C123.263 39.8466 121.751 41.6837 118.872 41.6837C115.946 41.6837 114.473 39.8481 114.473 37.0743V25.5708H109.121V37.9571C109.121 42.7554 112.174 46.998 118.872 46.998H118.913C125.571 46.998 128.619 42.6618 128.619 37.9571V25.5708H123.263ZM69.3271 25.5708L63.9841 39.6878L58.6411 25.5708H52.9589L61.4846 46.4106H66.49L75.0141 25.5708H69.3271ZM52.9864 35.4028C52.9864 32.378 52.012 29.8994 50.1031 27.9243C48.1939 25.949 45.7376 24.9837 42.7261 24.9837C39.6314 24.9837 37.0006 26.0348 34.8372 28.0926C32.7154 30.152 31.6577 32.7559 31.6577 35.9919C31.6577 39.2278 32.717 41.8747 34.7956 43.9324C36.9175 45.9918 39.4617 47 42.4716 47C47.0962 47 50.3605 44.9836 52.3495 40.9077L48.3651 38.6387C47.053 41.2014 45.1424 42.462 42.5565 42.462C39.377 42.462 37.1287 40.4457 36.7894 37.2526H52.985V35.4028H52.9864ZM42.5533 29.0167C45.5633 29.0167 47.5586 30.6966 48.0659 33.3863H36.7863C37.5943 30.9078 39.7963 29.0167 42.5533 29.0167ZM31.6579 46.4107L24.4891 33.9751C29.024 32.3366 31.2722 29.4801 31.2722 25.32C31.2771 20.2359 27.203 17 20.716 17H8.03931V46.4107H13.6368V34.4784H18.3876L25.2555 46.4107H31.6579ZM20.716 21.8729C24.0235 21.8729 25.6782 23.1749 25.6782 25.7377C25.6782 28.3003 24.022 29.6023 20.716 29.6023H13.6368V21.8729H20.716ZM137.677 46.9982C134.238 46.9982 131.449 44.2338 131.449 40.8216V19.9408H136.791V25.5789H141.372V29.8643H136.791V40.4819C136.791 41.4822 137.609 42.2919 138.62 42.2919H141.372V46.9982H137.677Z" fill="white"/>
</svg>
