<svg width="151" height="64" viewBox="0 0 151 64" fill="none" xmlns="http://www.w3.org/2000/svg">
<path d="M95.2313 27.9243C92.9831 25.949 90.2692 24.9837 87.1313 24.9837C84.0365 24.9837 81.3226 25.9507 79.0728 27.9243C76.8245 29.8566 75.682 32.5463 75.682 35.9919C75.682 39.4373 76.8245 42.1256 79.0728 44.1007C81.321 46.0331 84.0365 47 87.1312 47C90.2692 47 92.9831 46.0331 95.2313 44.1007C97.5228 42.1256 98.6653 39.4373 98.6653 35.9918C98.6653 32.5462 97.5212 29.8567 95.2313 27.9243ZM82.8924 40.4028C81.7066 39.2691 81.1097 37.7972 81.1097 35.9919C81.1097 34.185 81.702 32.7147 82.8924 31.6222C84.0781 30.4886 85.4799 29.9422 87.1296 29.9422C88.781 29.9422 90.2244 30.4886 91.4119 31.6222C92.6391 32.7147 93.2359 34.185 93.2359 35.9919C93.2359 37.7988 92.6439 39.2691 91.4118 40.4028C90.226 41.495 88.7826 42.0413 87.1296 42.0413C85.4799 42.0413 84.0813 41.4951 82.8924 40.4028ZM106.684 46.4103V17.5792H101.341V46.4103H106.684ZM123.93 25.5708V37.0743C123.93 39.8466 122.418 41.6837 119.539 41.6837C116.613 41.6837 115.14 39.8481 115.14 37.0743V25.5708H109.788V37.9571C109.788 42.7554 112.841 46.998 119.539 46.998H119.58C126.238 46.998 129.286 42.6618 129.286 37.9571V25.5708H123.93ZM69.9942 25.5708L64.6512 39.6878L59.3082 25.5708H53.626L62.1517 46.4106H67.1571L75.6812 25.5708H69.9942ZM53.6535 35.4028C53.6535 32.378 52.6791 29.8994 50.7702 27.9243C48.861 25.949 46.4048 24.9837 43.3932 24.9837C40.2985 24.9837 37.6678 26.0348 35.5043 28.0926C33.3825 30.152 32.3249 32.7559 32.3249 35.9919C32.3249 39.2278 33.3841 41.8747 35.4628 43.9324C37.5846 45.9918 40.1289 47 43.1388 47C47.7633 47 51.0276 44.9836 53.0166 40.9077L49.0322 38.6387C47.7201 41.2014 45.8095 42.462 43.2236 42.462C40.0441 42.462 37.7959 40.4457 37.4565 37.2526H53.6521V35.4028H53.6535ZM43.2204 29.0167C46.2304 29.0167 48.2257 30.6966 48.733 33.3863H37.4534C38.2614 30.9078 40.4634 29.0167 43.2204 29.0167ZM32.325 46.4107L25.1562 33.9751C29.6911 32.3366 31.9393 29.4801 31.9393 25.32C31.9442 20.2359 27.8701 17 21.3831 17H8.70642V46.4107H14.3039V34.4784H19.0548L25.9226 46.4107H32.325ZM21.3831 21.8729C24.6906 21.8729 26.3453 23.1749 26.3453 25.7377C26.3453 28.3003 24.6891 29.6023 21.3831 29.6023H14.3039V21.8729H21.3831ZM138.344 46.9982C134.905 46.9982 132.116 44.2338 132.116 40.8216V19.9408H137.458V25.5789H142.039V29.8643H137.458V40.4819C137.458 41.4822 138.276 42.2919 139.287 42.2919H142.039V46.9982H138.344Z" fill="white" fill-opacity="0.6"/>
</svg>
