<svg width="110" height="64" viewBox="0 0 110 64" fill="none" xmlns="http://www.w3.org/2000/svg">
<path fill-rule="evenodd" clip-rule="evenodd" d="M75.293 23.6899C76.3127 23.6902 77.2908 23.2855 78.0121 22.5647C78.7335 21.8438 79.1389 20.866 79.1393 19.8463C79.1396 18.8265 78.7349 17.8484 78.014 17.1271C77.2932 16.4058 76.3154 16.0004 75.2957 16C74.2759 16 73.2979 16.4051 72.5769 17.1262C71.8558 17.8472 71.4507 18.8252 71.4507 19.8449C71.4507 20.8647 71.8558 21.8426 72.5769 22.5637C73.2979 23.2848 74.2732 23.6899 75.293 23.6899ZM45.8438 25.7664C45.6696 26.2005 44.4237 29.7292 41.4013 33.3866V17.7523L33.3524 19.3439V47.6785H41.4013V38.9195C43.7324 42.4161 44.8845 47.6812 44.8845 47.6812H54.5223C53.5685 43.7157 49.3966 36.4063 49.3966 36.4063C51.8759 33.2096 53.7873 29.6106 55.0475 25.7664H45.8438ZM67.0003 25.4717C59.7927 25.7021 56.1326 28.9361 56.1326 35.364V47.6785H63.9993V37.6361C63.9993 33.7858 64.5031 32.1353 69.0714 31.9799V25.5815C68.3024 25.4207 67.0029 25.469 67.0029 25.469L67.0003 25.4717ZM19.8563 28.8825C18.8703 28.8182 16.5875 28.6709 16.5875 26.6158C16.5875 24.1373 19.8751 24.1373 21.1076 24.1373C23.2725 24.1373 26.0806 24.7777 28.0847 25.3779C28.0847 25.3779 29.202 25.7717 30.1532 26.1737L30.2416 26.2005V19.4082L30.1211 19.3734C27.7552 18.5454 25.0034 17.7496 19.9072 17.7496C11.1161 17.7523 8 22.8726 8 27.2615C8 29.7908 9.08516 35.7418 19.1516 36.4277C20.0064 36.4813 22.2705 36.6126 22.2705 38.7347C22.2705 40.487 20.4163 41.5212 17.2975 41.5212C14.302 41.495 11.3368 40.9192 8.54928 39.8225V46.8157C11.5636 47.6061 14.9637 48 18.9453 48C27.5435 48 31.3911 43.1557 31.3911 38.3542C31.3911 32.907 27.0853 29.3675 19.8563 28.8825ZM71.3945 47.6758H79.1969V25.7851H71.3945V47.6758ZM93.8826 19.1456V47.6758H101.685V17.7523L93.8826 19.1456ZM82.5005 19.1456L90.2949 17.7496V47.6785H82.4979V19.1429L82.5005 19.1456Z" fill="white" fill-opacity="0.6"/>
</svg>
