<svg width="111" height="64" viewBox="0 0 111 64" fill="none" xmlns="http://www.w3.org/2000/svg">
<path fill-rule="evenodd" clip-rule="evenodd" d="M75.978 23.6899C76.9977 23.6902 77.9758 23.2855 78.6971 22.5647C79.4185 21.8438 79.8239 20.866 79.8242 19.8463C79.8246 18.8265 79.4199 17.8484 78.699 17.1271C77.9782 16.4058 77.0004 16.0004 75.9807 16C74.9609 16 73.9829 16.4051 73.2619 17.1262C72.5408 17.8472 72.1357 18.8252 72.1357 19.8449C72.1357 20.8647 72.5408 21.8426 73.2619 22.5637C73.9829 23.2848 74.9582 23.6899 75.978 23.6899ZM46.5288 25.7664C46.3546 26.2005 45.1087 29.7292 42.0863 33.3866V17.7523L34.0374 19.3439V47.6785H42.0863V38.9195C44.4174 42.4161 45.5695 47.6812 45.5695 47.6812H55.2073C54.2535 43.7157 50.0816 36.4063 50.0816 36.4063C52.5609 33.2096 54.4723 29.6106 55.7325 25.7664H46.5288ZM67.6853 25.4717C60.4777 25.7021 56.8176 28.9361 56.8176 35.364V47.6785H64.6843V37.6361C64.6843 33.7858 65.1881 32.1353 69.7564 31.9799V25.5815C68.9874 25.4207 67.6879 25.469 67.6879 25.469L67.6853 25.4717ZM20.5413 28.8825C19.5553 28.8182 17.2725 28.6709 17.2725 26.6158C17.2725 24.1373 20.5601 24.1373 21.7926 24.1373C23.9575 24.1373 26.7655 24.7777 28.7697 25.3779C28.7697 25.3779 29.887 25.7717 30.8382 26.1737L30.9266 26.2005V19.4082L30.8061 19.3734C28.4402 18.5454 25.6884 17.7496 20.5922 17.7496C11.8011 17.7523 8.685 22.8726 8.685 27.2615C8.685 29.7908 9.77015 35.7418 19.8366 36.4277C20.6914 36.4813 22.9555 36.6126 22.9555 38.7347C22.9555 40.487 21.1013 41.5212 17.9825 41.5212C14.987 41.495 12.0218 40.9192 9.23427 39.8225V46.8157C12.2486 47.6061 15.6487 48 19.6303 48C28.2285 48 32.0761 43.1557 32.0761 38.3542C32.0761 32.907 27.7703 29.3675 20.5413 28.8825ZM72.0795 47.6758H79.8819V25.7851H72.0795V47.6758ZM94.5676 19.1456V47.6758H102.37V17.7523L94.5676 19.1456ZM83.1855 19.1456L90.9799 17.7496V47.6785H83.1829V19.1429L83.1855 19.1456Z" fill="url(#paint0_linear_1243_579)"/>
<defs>
<linearGradient id="paint0_linear_1243_579" x1="34.0213" y1="16.0027" x2="41.0601" y2="55.4701" gradientUnits="userSpaceOnUse">
<stop stop-color="#F178DF"/>
<stop offset="1" stop-color="#9F3CC5"/>
</linearGradient>
</defs>
</svg>
