<svg width="56" height="64" viewBox="0 0 56 64" fill="none" xmlns="http://www.w3.org/2000/svg">
<path d="M28 52C39.0457 52 48 43.0457 48 32C48 20.9543 39.0457 12 28 12C16.9543 12 8 20.9543 8 32C8 43.0457 16.9543 52 28 52Z" fill="#26A17B"/>
<path d="M30.1318 33.8457V33.8424C29.9936 33.8521 29.2797 33.8939 27.6913 33.8939C26.4212 33.8939 25.5305 33.8585 25.2154 33.8424V33.8457C20.3312 33.6302 16.6881 32.7813 16.6881 31.7621C16.6881 30.746 20.3344 29.8939 25.2154 29.6785V33C25.5338 33.0225 26.4502 33.0772 27.7138 33.0772C29.2315 33.0772 29.9904 33.0129 30.1318 33V29.6817C35.0064 29.9003 38.6399 30.7492 38.6399 31.7653C38.6399 32.7813 35.0032 33.6302 30.1318 33.8489M30.1318 29.3376V26.3666H36.9325V21.836H18.418V26.3666H25.2186V29.3376C19.6913 29.5916 15.537 30.6849 15.537 31.9968C15.537 33.3087 19.6945 34.4019 25.2186 34.6592V44.1833H30.135V34.6592C35.6527 34.4051 39.8006 33.3119 39.8006 32C39.8006 30.6913 35.6527 29.5949 30.135 29.3408" fill="white"/>
</svg>
