<svg width="109" height="64" viewBox="0 0 109 64" fill="none" xmlns="http://www.w3.org/2000/svg">
<path d="M56.0463 26.5909C55.9933 30.7698 59.7705 33.1019 62.616 34.4884C65.5395 35.9111 66.5215 36.8233 66.5103 38.0954C66.488 40.0426 64.1782 40.9018 62.0162 40.9353C58.2445 40.9939 56.0519 39.9171 54.3083 39.1025L52.9498 45.4601C54.6989 46.2663 57.9377 46.9693 61.2964 47C69.18 47 74.3381 43.1084 74.366 37.0744C74.3967 29.4168 63.7737 28.9928 63.8462 25.5698C63.8713 24.5321 64.8616 23.4246 67.032 23.1428C68.106 23.0006 71.0714 22.8918 74.433 24.44L75.7524 18.2888C73.9448 17.6305 71.621 17 68.7281 17C61.3076 17 56.0882 20.9446 56.0463 26.5909ZM88.4315 17.53C86.992 17.53 85.7785 18.3697 85.2373 19.6585L73.9755 46.5481H81.8534L83.4212 42.2157H93.0483L93.9578 46.5481H100.901L94.8421 17.53H88.4315ZM89.5334 25.369L91.807 36.2654H85.5804L89.5334 25.369ZM46.4945 17.53L40.2847 46.5481H47.7917L53.9987 17.53H46.4945ZM35.3889 17.53L27.575 37.2808L24.4144 20.4871C24.0433 18.6124 22.5788 17.53 20.9524 17.53H8.17855L8 18.3725C10.6223 18.9416 13.6016 19.8594 15.4065 20.8414C16.5112 21.4411 16.8265 21.9656 17.1891 23.3911L23.1758 46.5481H31.1095L43.2725 17.53H35.3889Z" fill="white" fill-opacity="0.6"/>
</svg>
