<svg width="110" height="64" viewBox="0 0 110 64" fill="none" xmlns="http://www.w3.org/2000/svg">
<path d="M56.9476 26.5909C56.8946 30.7698 60.6718 33.1019 63.5172 34.4884C66.4408 35.9111 67.4227 36.8233 67.4116 38.0954C67.3892 40.0426 65.0794 40.9018 62.9174 40.9353C59.1458 40.9939 56.9531 39.9171 55.2096 39.1025L53.851 45.4601C55.6001 46.2663 58.8389 46.9693 62.1977 47C70.0813 47 75.2393 43.1084 75.2672 37.0744C75.2979 29.4168 64.6749 28.9928 64.7474 25.5698C64.7725 24.5321 65.7629 23.4246 67.9332 23.1428C69.0072 23.0006 71.9727 22.8918 75.3342 24.44L76.6537 18.2888C74.846 17.6305 72.5222 17 69.6293 17C62.2089 17 56.9894 20.9446 56.9476 26.5909ZM89.3327 17.53C87.8932 17.53 86.6797 18.3697 86.1385 19.6585L74.8767 46.5481H82.7547L84.3225 42.2157H93.9496L94.859 46.5481H101.802L95.7434 17.53H89.3327ZM90.4346 25.369L92.7082 36.2654H86.4817L90.4346 25.369ZM47.3958 17.53L41.186 46.5481H48.6929L54.8999 17.53H47.3958ZM36.2901 17.53L28.4763 37.2808L25.3156 20.4871C24.9446 18.6124 23.48 17.53 21.8536 17.53H9.0798L8.90125 18.3725C11.5235 18.9416 14.5029 19.8594 16.3078 20.8414C17.4125 21.4411 17.7277 21.9656 18.0904 23.3911L24.077 46.5481H32.0108L44.1737 17.53H36.2901Z" fill="#3163DE"/>
</svg>
