<svg width="40" height="40" viewBox="0 0 40 40" fill="none" xmlns="http://www.w3.org/2000/svg">
<path fill-rule="evenodd" clip-rule="evenodd" d="M8.75008 15.5416C7.36119 17.8194 6.66675 20.4166 6.66675 23.3333C6.66675 25.7778 7.26397 28.0069 8.45841 30.0208C9.21614 31.2984 10.1248 32.4054 11.1843 33.3421C11.6032 33.7124 12.2394 33.1346 12.0626 32.6041C11.7987 31.8125 11.6667 30.9722 11.6667 30.0833C11.6667 28.9722 11.8751 27.9305 12.2917 26.9583C12.7084 25.9861 13.3195 25.0972 14.1251 24.2916L17.6682 20.7988C18.9627 19.5226 21.041 19.5189 22.3401 20.7905L25.9167 24.2916C26.6945 25.0694 27.2917 25.9514 27.7084 26.9375C28.1251 27.9236 28.3334 28.9722 28.3334 30.0833C28.3334 30.9722 28.2015 31.8125 27.9376 32.6041C27.7608 33.1346 28.3969 33.7124 28.8159 33.3421C29.8754 32.4054 30.784 31.2984 31.5417 30.0208C32.7362 28.0069 33.3334 25.7778 33.3334 23.3333C33.3334 20.8611 32.7223 18.5903 31.5001 16.5208C30.4877 14.8066 29.2085 13.4022 27.6624 12.3074C27.1057 11.9132 26.3488 12.0553 25.9167 12.5833C25.5556 13.0278 25.1598 13.3472 24.7292 13.5416C24.2987 13.7361 23.8473 13.8333 23.3751 13.8333C22.514 13.8333 21.7362 13.5347 21.0417 12.9375C20.3473 12.3403 20.0001 11.5278 20.0001 10.5V7.41889C20.0001 6.3497 18.8376 5.68583 17.9167 6.22914C16.5279 7.04859 15.0001 8.23609 13.3334 9.79164C11.6667 11.3472 10.139 13.2639 8.75008 15.5416Z" fill="#B8B4DE"/>
<path fill-rule="evenodd" clip-rule="evenodd" d="M23.5417 26.625L21.1645 24.3036C20.517 23.6714 19.4832 23.6714 18.8357 24.3036L16.4584 26.625C15.9862 27.0972 15.6251 27.6319 15.3751 28.2291C15.1251 28.8264 15.0001 29.4444 15.0001 30.0833C15.0001 31.4444 15.4862 32.6041 16.4584 33.5625C17.4306 34.5208 18.6112 35 20.0001 35C21.389 35 22.5695 34.5208 23.5417 33.5625C24.514 32.6041 25.0001 31.4444 25.0001 30.0833C25.0001 29.4166 24.8751 28.7916 24.6251 28.2083C24.3751 27.625 24.014 27.0972 23.5417 26.625Z" fill="#B8B4DE" fill-opacity="0.6"/>
</svg>
