<svg width="25" height="24" viewBox="0 0 25 24" fill="none" xmlns="http://www.w3.org/2000/svg">
<path fill-rule="evenodd" clip-rule="evenodd" d="M12.5 1C9.5124 1 9.1384 1.01247 7.96507 1.066C6.79393 1.11953 5.99387 1.3058 5.29427 1.57787C4.56093 1.8536 3.8958 2.28627 3.3458 2.84653C2.78643 3.3959 2.3535 4.06056 2.07713 4.79427C1.80653 5.49387 1.61953 6.29467 1.566 7.4658C1.5132 8.6384 1.5 9.01167 1.5 12C1.5 14.9883 1.51247 15.3616 1.566 16.5349C1.61953 17.7061 1.8058 18.5061 2.07787 19.2057C2.3536 19.9391 2.78627 20.6042 3.34653 21.1542C3.89591 21.7136 4.56057 22.1465 5.29427 22.4229C5.99387 22.6942 6.79393 22.8805 7.96507 22.934C9.1384 22.9875 9.5124 23 12.5 23C15.4876 23 15.8616 22.9875 17.0349 22.934C18.2061 22.8805 19.0061 22.6942 19.7057 22.4221C20.4391 22.1464 21.1042 21.7137 21.6542 21.1535C22.2136 20.6041 22.6465 19.9394 22.9229 19.2057C23.1942 18.5061 23.3805 17.7061 23.434 16.5349C23.4875 15.3616 23.5 14.9876 23.5 12C23.5 9.0124 23.4875 8.6384 23.434 7.46507C23.3805 6.29393 23.1942 5.49387 22.9221 4.79427C22.646 4.06025 22.213 3.3953 21.6535 2.8458C21.1041 2.28643 20.4394 1.8535 19.7057 1.57713C19.0061 1.30653 18.2053 1.11953 17.0342 1.066C15.8616 1.0132 15.4883 1 12.5 1ZM16.9455 3.046C15.7853 2.9932 15.437 2.9822 12.5 2.9822C9.563 2.9822 9.21467 2.9932 8.05453 3.046C6.9824 3.09513 6.40013 3.27407 6.0122 3.42513C5.53437 3.60112 5.10209 3.88203 4.7472 4.2472C4.36293 4.6322 4.12387 4.99887 3.92513 5.5122C3.77333 5.90013 3.59513 6.4824 3.546 7.55453C3.4932 8.71467 3.4822 9.063 3.4822 12C3.4822 14.937 3.4932 15.2853 3.546 16.4455C3.59513 17.5176 3.77407 18.0999 3.92513 18.4878C4.10123 18.9656 4.38213 19.3978 4.7472 19.7528C5.10214 20.1179 5.5344 20.3988 6.0122 20.5749C6.40013 20.7267 6.9824 20.9049 8.05453 20.954C9.21467 21.0068 9.56227 21.0178 12.5 21.0178C15.4377 21.0178 15.7853 21.0068 16.9455 20.954C18.0176 20.9049 18.5999 20.7259 18.9878 20.5749C19.4656 20.3989 19.8979 20.118 20.2528 19.7528C20.6179 19.3979 20.8988 18.9656 21.0749 18.4878C21.2267 18.0999 21.4049 17.5176 21.454 16.4455C21.5068 15.2853 21.5178 14.937 21.5178 12C21.5178 9.063 21.5068 8.71467 21.454 7.55453C21.4049 6.4824 21.2259 5.90013 21.0749 5.5122C20.8761 4.99887 20.6378 4.6322 20.2528 4.2472C19.8678 3.86293 19.5011 3.62387 18.9878 3.42513C18.5999 3.27333 18.0176 3.09513 16.9455 3.046Z" fill="white"/>
<path fill-rule="evenodd" clip-rule="evenodd" d="M12.5 2.9822C15.437 2.9822 15.7853 2.9932 16.9455 3.046C18.0176 3.09513 18.5999 3.27333 18.9878 3.42513C19.5011 3.62387 19.8678 3.86293 20.2528 4.2472C20.6378 4.6322 20.8761 4.99887 21.0749 5.5122C21.2259 5.90013 21.4049 6.4824 21.454 7.55453C21.5068 8.71467 21.5178 9.063 21.5178 12C21.5178 14.937 21.5068 15.2853 21.454 16.4455C21.4049 17.5176 21.2267 18.0999 21.0749 18.4878C20.8988 18.9656 20.6179 19.3979 20.2528 19.7528C19.8979 20.118 19.4656 20.3989 18.9878 20.5749C18.5999 20.7259 18.0176 20.9049 16.9455 20.954C15.7853 21.0068 15.4377 21.0178 12.5 21.0178C9.56227 21.0178 9.21467 21.0068 8.05453 20.954C6.9824 20.9049 6.40013 20.7267 6.0122 20.5749C5.5344 20.3988 5.10214 20.1179 4.7472 19.7528C4.38213 19.3978 4.10123 18.9656 3.92513 18.4878C3.77407 18.0999 3.59513 17.5176 3.546 16.4455C3.4932 15.2853 3.4822 14.937 3.4822 12C3.4822 9.063 3.4932 8.71467 3.546 7.55453C3.59513 6.4824 3.77333 5.90013 3.92513 5.5122C4.12387 4.99887 4.36293 4.6322 4.7472 4.2472C5.10209 3.88203 5.53437 3.60112 6.0122 3.42513C6.40013 3.27407 6.9824 3.09513 8.05453 3.046C9.21467 2.9932 9.563 2.9822 12.5 2.9822ZM8.50202 8.00202C9.56235 6.94169 11.0005 6.346 12.5 6.346C13.9995 6.346 15.4376 6.94169 16.498 8.00202C17.5583 9.06235 18.154 10.5005 18.154 12C18.154 13.4995 17.5583 14.9377 16.498 15.998C15.4376 17.0583 13.9995 17.654 12.5 17.654C11.0005 17.654 9.56235 17.0583 8.50202 15.998C7.44169 14.9377 6.846 13.4995 6.846 12C6.846 10.5005 7.44169 9.06235 8.50202 8.00202ZM19.4074 7.18838C19.6581 6.93774 19.7989 6.5978 19.7989 6.24333C19.7989 5.88887 19.6581 5.54893 19.4074 5.29829C19.1568 5.04764 18.8168 4.90683 18.4624 4.90683C18.1079 4.90683 17.768 5.04764 17.5173 5.29829C17.2667 5.54893 17.1259 5.88887 17.1259 6.24333C17.1259 6.5978 17.2667 6.93774 17.5173 7.18838C17.768 7.43902 18.1079 7.57983 18.4624 7.57983C18.8168 7.57983 19.1568 7.43902 19.4074 7.18838Z" fill="white"/>
<path d="M12.5 15.6703C12.018 15.6703 11.5407 15.5754 11.0954 15.3909C10.6501 15.2065 10.2455 14.9361 9.90468 14.5953C9.56386 14.2545 9.29351 13.8499 9.10905 13.4046C8.9246 12.9593 8.82967 12.482 8.82967 12C8.82967 11.518 8.9246 11.0407 9.10905 10.5954C9.29351 10.1501 9.56386 9.74551 9.90468 9.40468C10.2455 9.06386 10.6501 8.79351 11.0954 8.60906C11.5407 8.4246 12.018 8.32967 12.5 8.32967C13.4734 8.32967 14.407 8.71636 15.0953 9.40468C15.7836 10.093 16.1703 11.0266 16.1703 12C16.1703 12.9734 15.7836 13.907 15.0953 14.5953C14.407 15.2836 13.4734 15.6703 12.5 15.6703Z" fill="white"/>
</svg>
